<mxfile host="app.diagrams.net" agent="Mozilla/5.0 (Windows NT 10.0; Win64; x64) AppleWebKit/537.36 (KHTML, like Gecko) Chrome/131.0.0.0 Safari/537.36" version="26.0.2">
  <diagram name="Page-1" id="fjoPEDxiL1jUgZXZflyi">
    <mxGraphModel dx="4920" dy="5592" grid="1" gridSize="10" guides="1" tooltips="1" connect="1" arrows="1" fold="1" page="1" pageScale="1" pageWidth="827" pageHeight="1169" math="0" shadow="0">
      <root>
        <mxCell id="0" />
        <mxCell id="1" parent="0" />
        <mxCell id="FOuPMx6KwlrgepM2unAe-41" value="" style="rounded=0;whiteSpace=wrap;html=1;" parent="1" vertex="1">
          <mxGeometry x="-1360" y="-1560" width="3200" height="2770" as="geometry" />
        </mxCell>
        <mxCell id="FOuPMx6KwlrgepM2unAe-38" value="" style="rounded=1;whiteSpace=wrap;html=1;fillColor=#cce5ff;strokeColor=#36393d;" parent="1" vertex="1">
          <mxGeometry x="-1330" y="-1380" width="3140" height="2460" as="geometry" />
        </mxCell>
        <mxCell id="FOuPMx6KwlrgepM2unAe-26" value="" style="rounded=0;whiteSpace=wrap;html=1;fillColor=#d5e8d4;gradientColor=#97d077;strokeColor=#82b366;" parent="1" vertex="1">
          <mxGeometry x="1040" y="-562.5" width="680" height="1342.5" as="geometry" />
        </mxCell>
        <mxCell id="FOuPMx6KwlrgepM2unAe-25" value="" style="rounded=0;whiteSpace=wrap;html=1;fillColor=#fff2cc;gradientColor=#ffd966;strokeColor=#d6b656;" parent="1" vertex="1">
          <mxGeometry x="-80" y="-561.25" width="1070" height="1341.25" as="geometry" />
        </mxCell>
        <mxCell id="FOuPMx6KwlrgepM2unAe-24" value="" style="rounded=0;whiteSpace=wrap;html=1;fillColor=#f8cecc;gradientColor=#ea6b66;strokeColor=#b85450;" parent="1" vertex="1">
          <mxGeometry x="-1120" y="-562.5" width="960" height="1352.5" as="geometry" />
        </mxCell>
        <mxCell id="FOuPMx6KwlrgepM2unAe-11" value="" style="rounded=1;whiteSpace=wrap;html=1;" parent="1" vertex="1">
          <mxGeometry x="130" y="-390" width="300" height="1080" as="geometry" />
        </mxCell>
        <mxCell id="hYPPhDHAA7ZH92lHZAwE-2" style="edgeStyle=orthogonalEdgeStyle;rounded=0;orthogonalLoop=1;jettySize=auto;html=1;entryX=0;entryY=0.5;entryDx=0;entryDy=0;shape=flexArrow;fillColor=#a20025;strokeColor=none;strokeWidth=6;" parent="1" source="FOuPMx6KwlrgepM2unAe-6" target="hYPPhDHAA7ZH92lHZAwE-1" edge="1">
          <mxGeometry relative="1" as="geometry" />
        </mxCell>
        <mxCell id="FOuPMx6KwlrgepM2unAe-6" value="" style="shape=image;verticalLabelPosition=bottom;labelBackgroundColor=default;verticalAlign=top;aspect=fixed;imageAspect=0;image=data:image/png,iVBORw0KGgoAAAANSUhEUgAAAOEAAADhCAMAAAAJbSJIAAAAolBMVEUAt/Pt7e3+/v7///8At/QAtO38///r7/E8sNUAs+7c///L/f/7+/vv7+/39/fz8/Ps//9kx+teweTa+P7o8vOE1O4ArOKO2e33//9dw+Tu7O/c/v/T///l//+I3Pd61vFPudti0O/R+v92zOug4fXU8/4WsOGt7PvF8P3g8/l2z+xdzPPf+/+S5ftoze6o6vRAwOspueua1OJ53fMsxvNZ1fPE8nyVAAALI0lEQVR4nO2dCX+iOBjGkbOxito6DG112rGtY4/tdPb4/l9tc3AkkIQkgErK85ud6fKq8O8bkjw50PFyhUgRo5CRLLZgYjETi5VjCyY2M70YfGgymU/mSI5L5KXL7XQ6vWQ0ZSSLbZjYppOY8cXAA7vn9YRo7niIL0x3vx4fLuzRw+PT4SUqCcPt788EABB0re4/sfmUAJ8XJJ9Pz1FOGG7v94Hj+76D/hq6IATGCPavu4gQQsAE4JA9QoggeUVZhITp7z049RX1IrB/ekE59HafAZ1AS3IJkfzg8zCHOUx/JY5dRZQIIoHkaT1xwuVjcOqL6U3g8Tpywu0DwJVofpTKZ+OP5/7i4GEHCacXwM+PDLyw4sunEcHFJSHMD1hBSFeVQYXQsaYizeRjwuiSIRx6GnErUfwcXEzDKiHzzxDlU1cP78MaIfOy/MXl//m+OMY9ULzPb/hk6sVUjDqh4otZDF4OUTuJO+ggdwYgKEwHyP0HyF5R/AiKjj0VCGrvC+gXB8z7AvoViu+rXCVSIyEU+PP2sSK6uboq/lxdrRgJYh/ozw0+lodv2Pfh2BX3M1dUrPq+VX4qIn7s7U/QTOiDt+l2SfR+TWvJiI1tlWNb5di7cmyZH758A42E0HSslqnqYEih2XmM2lzfqBAGq2WYjd3MJ7RmLiVvoRyLPToWi2PujIktJLE5E3Ozo9H1FfBPQcjEZIRsTEa4EBDeNBPCns7pcqhOKMqh/YQKpXTghGMOC8JsoJ8ldD1aFUJJLGZiVUJa1dpEHJszMXkOWfeECK+uozkRkxl3MaclizG1pxsbxmZMbKEQC5erKmHNH2aEedaYsqdeZpXLpScpl7WMMoSVjB6dkIkZEhq0/1+HMLdRI+FIeL6E9t+HI+FIaBMhS9ERoSRW6Zkpx8YcSgiZHnyFUNlpyNxElbCd06gSOpx5C4e4pxlW1U0wqrgJJhZ3EluwJ2yMLebRe48e3xPHOnEaZg64mLfw+YSuhNCVeHxXQuj24fHzmK3jNGHN41P9UisI3UoppZYkjIRDIfTCgvBGUNMMn/D2lhDaWdPAusZmwhBf6y05Gu2uFGZIB0ZIlAE+/9hbSkhi0fUPtIzUL5cs2EPoEsDve+CrErZ0E6eYt0AZDCrrTUhrwXFP79GCqOImGLGxmInFPcQaLiZc/lVf6dzSAfftJmTzFrWMhlsOoE0eH2ewvlTNBkLSEEZbLuDwCbN2HlYyvCJqEWH0/I2bwSEThmVNMycNPX+56HAJUawooi8/hBtiBk54ixIoKaKDJ6xmkEdpASFyE5I9WychjNoQhpVY5ibOinD9/IIvkxjXdoS32E1IAE8xb7E+rP4OBbGJ7rxFQxHFLIhwsam5py2/A9+BY9jc77+tu3Iay0ZASLiZ6ThgiZtodBrov3T6kYBv61pM5a7kuYmkCbB0wIJ5C1OPz5u3gB8Z3t0nQEao5PFJSz/n+kExoWIOVQn5bjGc/kwcpzUhoYxUAI9L6KXTV1iq/E4IsZtQ2Bd6TEIvhUUUDRO1I8zdREM7eArCFBfR1oRI87KZaNpodzRCdA/ek4qvi1Iavatl8Jg5RM1E9utuT1gb2T4DQnQP5ufQJsz6d9RMtjLgEQhJxRDfvSbZGf3WOZQZ3lPlcL3DgNkGzZaECn3RoxOuD6/7LH/oVjQgDEtC1WaimbClm6Bi68NbQn96jVDFTcBfmqqb4BDGNW9x9V707mlVe/6y2Cw/Ptu9ZpVM1naB76nC+/jnQ24CVTLK+7Ah4WbR4A/psqfvNHAzkZ8tJwypN2rNWxRzEzqE/Xp8j24mMsEcKhJW3MRCyU0cmTDryZTPAEB1qT5hFlsqdbaPSeilG2h4mUdVtCAUzk2cjtAr+qKMtAmz2aUX4dD9yQihm9hzTqpGiLtqhV+aazcTxyAMN/cJr2Y3KqU6fdH+CdEvPaabifaE0bVkbuL4hDiHnGZCjxAV08JNoCJq9FSZ/ghnuJLhXpQ+oWZf9CiE6x1uJri/ddVSGtJuorpO5tSE0E2Ix2oVCBnPm/lBM8Se5i2qbqJKqDRvYeomeIR1b7Haxm20k2QQuae0+SNKbU0aeorlYhPzR/U96CoEWcMRl+cP8fG0GLIQEVb9oUveiv4SuglD9TFvkd79zAH5TbSOx88BfcFnNRM27SjRJ4R90YZfuoQwrN6V+napStj1OA3VkxHeO+qERm6iX0IIWPRkTAjzUpqtSn/58aclYOeE6B7M7KC4+mueIc3sknlPpi9CD7kJ0JYwX+k0ES/l0iHsckdJNj/YKDXCfM12W8Iuc6hURCWE+JQxBry9zSdf2j6mslNCasjCiJCqafTmJo5EuN7QhleGqEBI/OB5Ea4P93RXTVa4mgk7qUUbCbXdxL6ZTUBYdRrmjl5EyJm30PQWaekmFAi/N3iLd1TJdAOI5y3ilv6QDN3zhg2FhFJ/GC6fOnwEfmuPj8146SaUipbc44eCbQWnIsTtWNFMqD1kWUCYzb7wN4ackjCsT5+ZEWJBN6HSLTomIW/6zIAw76oZzU30SxhOte7BGiHlCKX7Jk5FSHe2WxPqLARSVtvdedliPD3VSmm3boJVS0K0GI+ME+EPU7w6bk2jsRjviITlYrzs01oQaizG01IrwvXuY2/y6+YSducmWLUhhG7C7JfOIbzt0E2wUpu3cPMBaZpwffgwrPjwepp84JwQ9gYonLdo8haLOJs+M1HVWyzi2HAKW0WSeQupP2we2Rar9Id4WLRrN8HKdN6CrNk2rNarDrjt5ItUhoTlSicTMYS3k7j13IRMRuM0oXCVhZpYwui9T0ATwtDATbAihLSbaAchlUkOUSXj+y36VmUO52Uz0dcXFOkTksV4rcaJqFJaztH3BKg/byFYjKelkrCnvigt3RyKFuNpKSOc99iTKaVLKFqMp6U8h6aL8bSkSYi6au1PmhEaL8bTkh7h+vBT39HXRQjbLQRSllZNEx0+RIvxtIQJj3EPIpEc8vZyZ/1+asfDerdKHMFiPC0BtJcbP7Sq9Uc1S3XewvW6aCYyQX8YprirdgREdY+fFuOirQX9ocI2846kSkhWWXR0UvB9q79vwlSKhOVivC7KFfjnrz2zy6RPKRKi6TNmc1YrgX//sF/O26fUCOkhi06S2H9DX0iFkBhefE3Hu7DOpDKaSBleOwlVVzqdqZoJ07KZsJNwfae0GO981URYuolBJtBpJIRuotNm4hTChDPBXu7MTWQaKCLeyy1Y15a7CX/Q5VTi8al9EwOWZN6iSzdxQonHadBiPAsAxYTbwk0MXNxvj0eEl1YUUUdICP79Lxlq3VmRoJRCRl9tJeXZS0hojUbC4YtDaMXdV+pL5tAyCb553CIJHLBFGgmHr5Fw+BoJh6+RcPgaCYcv+wmdgtAyW1iK/83jNom/cs8iCeYtLNJX8fgj4ZA1Eg5fgnXeFukL5HAkHLy+AOEXqWls9of2O+CRcPgaCYevkXD4GgmHr5Fw+BoJhy/f/nkL6J486wktn7cgHn/3wBJSS7wbfzzvFzsOeNhCwufHoBaxReBxGTqT9RPefGAdIdpvkPxKPWcyOXwy34llCSnaURF87jzPmU9ensy/Feu8tf+deiiH0fNrovg07sEIPbYBJPfb0EU5RIjoYRzkWRX+8EUKZLC/vwtdQggRnz4TEIAgCAD6a/CCLMnn7y16VhIhnEQvh6fHhwt79PD6a5emLnoIrJM/C2p9vbu8vJwyumQki22Y2KaH2FQ5hi50u8wf5gsJkSbobkQKGUWMZLEZE1swsZiJxcqxhenFeOhQ8QUT/wNgo+oD/pU+8gAAAABJRU5ErkJggg==;imageBorder=default;" parent="1" vertex="1">
          <mxGeometry x="1080" y="45" width="225" height="225" as="geometry" />
        </mxCell>
        <mxCell id="FOuPMx6KwlrgepM2unAe-10" value="" style="shape=image;verticalLabelPosition=bottom;labelBackgroundColor=default;verticalAlign=top;aspect=fixed;imageAspect=0;image=data:image/png,iVBORw0KGgoAAAANSUhEUgAAAOEAAADhCAMAAAAJbSJIAAABU1BMVEX///8zMzQ8nzZdsS9xtitttSwAAAAwMDGlpaUkJCYoKCmCuyX6+vp9vExqtCctLS8ODhBeXl8fHyDExMQZGRuwyx/Z2dmfxSHt7e3X6cxksRFosgIUFBaNjY2TwSN7e3y/3KuDvUWxzT9XrDGpykRDQ0SnyB5nZ2e0tLRjsS7P5L5ytiDLy8vo6Ojf39+dxCEoijXE0x+YmJhPT093uTip0YuqykmryACxzDSurq61zR6awgCEugDy+O62156Nw2Hi79lJpDSaynTZ57exzlvH24+801Hj7cXD12vU46OFhYXG2n66zy+pzWafxjm31H5ztQDr8+HW45iVxFbc56iMwniAvGZzuFNPqhPF37ey1ZebxkagzHyMwlQsmiWgy52x1K9VqVG3zrMOcgA1gi41lTXW4dYfdCFunm9ys286ikESiR1RmFhbplYYhyiPwYuHt4vniVUyAAAJkElEQVR4nO2a/V/aSBrASeVFAkKE8GJEpKgoBsHXiqLCqbWr2/Nlb7uLrbW73dW9u+629///dM8zMwlJPKrXncDWz/P9fFoYksnkyzMzz0wwECAIgiAIgiAIgiAIgiAIgiAIgiAIgiAIgiAIgiAIgiAIgiAIgiAIgiAIgiAIgvgq2B32DfjNweEjV9zNzR4O+x785XB29vT5sG/CTw4as7PPTl8M+zb8Y7cyC4bPmo93KB5lmGH5aNg34hcHm2g4+6zcfKRDMb6ZyZSZYbnyOIfiN2DYxCCWy+VHORRfgGAmIwzLjzErZjLCsNzEIB4P+36k8x0LIQ7EJhqWmxe+NVVPp2u+XbwvF1wQByI39DFljGr6mm8X78tRJmN1U2FY9i1ljEaT435duy8vNm3DctNS9CtlDMWwUqkIw7JteCS3n56Ew9P83TAMn29WMkKx2bRjePStzDamVHV4hrubFTuIzZ7ikdR+OlTDbyoOVl72umlZ4tJmmIadlq2HUVxZAUmuePr3OyfH8/m89zP4KG4djnsPWngM4+4zncU444tU+lB2CVa2QXFl+yUz3LnTT5fChXDW/VEcPlrAN7VxDZhb4B/PhzVWXMVCPqwqSrJQCC+hoaJE4UhyVVwgP52CYnSKW42zemGJigeblt82G4mVFc7L5tFpsXjn9LmIyu8svZBOszcLKUXD+9kKJxUgUuCxmlYVVkxheo9rrKAUhCE7Ep1jGku6yosRLNYK7KAm0TCX4YLb28Iws2IRi+2ceU9fjUbYiiQeTqXCrMPOJ5PzeKNhRUnpeiqiFFgU5zVdZ8XUFsYQ7JN6yo4hHEoqUfZdzCUVFYqqouJl0ilFgZLEGB63cjyAlqEdxO1iLBY773jOz+qKhmI1uJMUW18WlNQCU1ei6Xq9NhdJsq+gnkWwCPNKvDYN30O2Voszw+hqvZ6dT7JIZQuKOlWv1yHm+I2BoQolz0j4M7QajRz3Q0HRXZlgJYY89VZIcSGMBOuvadFJ55PqVICXdcfpC9GIgq/OmSYyh6/xgqLXsZPzEwKaotdY9ag8O+B5q5FjQcwxRH8FwUwlxwzPS54a0/xW57HbjbMyn/zBkA3QmtswnbpryCvA2NSz7CtgwtgX/DDchNBZejlrxgFDeC3GuKJnRMAtpAL4jUci7A30uS1hOIqvWdtwKQ1MqcM1xG2hHcBeCLfxNSa4clfhN5bVk/NrkULdHpcY1DlGhBvGx7UUoCr3GiqKqOeHIdtTcMWGpQgjEl8aluG5ZzM8noyOBrai6uiJCiMSYsR3e9htI4jCDed4tlAeYijq+WD4ndOwwUdkhnVbu5MC/3BXgjtcA59UbSEKcwvksVHLUNU4YSimdciM0Wj0ITGMWPXS0g03RQpk3VQoYgBzjk4KQZxwVaoXYPJU4V9dj6wtFRToqtwQZpq4veSC2LKE/rCZpldPruH3mzwHVmzFhphXnSG8kzEUWNaoOD3okNhUMU/Yc6kAplyRPB4603DkGlpZsDebsqHI/nMIxs4XXdWmVAV65AnrmLAwWXUbxiHPf5Eh1MtLNnxhrUhh8DVEqgA5pplzGsbWXfVqOswfmPZXcYWpZ92G6bAe5oYnbsNkH0Mr40M92TPNYS8HVopIo4XkPJ00WK123SNRE2toXLlFkuJDiKxay+fra3zVBvZYzG+JNc1WVEll2S7LYwirtugqnHhir9qkGe62HGkeBXeKZwcvDo6ftZzzDPgBY66a0DsjKr9HhfdFoI4r70JBh3SIq7qaxoqFqJhL83BYx8nSawjDWonCiSpfIsk0ZAs2YZhDwQNx4OKwJZKhWZ1hglWj46wJEzzvcpjd7ae7q1qEb5fm+degR5z5MDCq8ZR+x7DOd12KmspLNmTZQSg2isU3jtXZ8Q4Pn/AD9p0187DnZUnwBN70Pk7PaYWCxtduaKxCEdDEIm4hyRJeYDUcFvsvjW+ml+bxRG2aLY3SYc1xyT9FpyUUeSc9dR0s7Zy3X/3Q7VZHRkaYYdf1yMZ6buF9puEp5wW9Mtayn1Hk444jefsS8TuPSb6Qs6IjiMUdz9KM54fFkRGh2C1JanaA4NxpB/HuXl7woxXEsT4n/HW52GH5gQcx5w1hDzuIX92PpgfcsCEM+5430RWGlwO6scuNjpwLnRU5IAhZ/k3/E2dEEK/6nyKTkmEacn67fFO0FFvfHp99xnBDGA5oILYTQWNPypUsweIpDrDPPLsrdbliV0qz91IyDEkx3BGCrfseTJYSAzUMLL6W9AO7ZdgvTdiUzGAIFQdlKA2rk977RxdgGAyGvkLDNw+N4QYaBoMJeTPN5V4JETuy0h7DKl683nstpxmRLRqx+07kgkFz/74TH0zbYEzyDctTVjDNyXW2ppiAgpxm9nZiaFgdefX5864sQzlTONI2EokEXnMSncYSoRArmyYenDCCk3KamTiH7Z85MzPTffWZ9dhF2+CCwcmJ/mf9n1yNvQXWzaC5EWCGY+12G4vYPeUZBibhW6uOzKDjjz+0GdDuGPL06TrHnBQRDEprtse+ab4NoKFRwuKVaeIzPYmGbbh5yHSoODOSSJhIwibowWxLarYHrM9QyTJcNILYTSUaLk6aVctwJsQ9QgKvXzDow8L70m9DmCTZ/pYZugU9iqGZvz25ltUq0rl6O/Z0bD3ot+Fed8RWDPU1rM48Aa7fyWoVG7bmUr8NA17DkNcQg8eRGcILA9IDpkD/DS97ilW3YMgOnhD8SVqjgcBrI2RswJpGTJ5+GrKHMFzRZegMHudneW1Clkgk2G7a97kU2O1ailXHPFr16EEIpT6jaScMtvIchCF7CMODyA1hD+G1Q0F5yxlkoIZ8A4+KTPBO8OQPwgDrpWwVbxvy4oZp4k9csg3tlOGaWNyCMhMFaxJmmvbGxkbbmmlYcd/gy1TphoH3v/wKLN8sL9/c3AwggjD6MVvAEtHOh6yYEFsN+YaB299+Q8Mn4Mi4cZpeX3ckNxfAEWeIdbAwTGDRmGRNTRim9EV+/J+//ApiT54su0DT639J/TtPi93S1T4DswaOww14W+LHOvv78hf5gdt/f1zGwN24BT8s38pv6w7WXOozt79/uMZeaTt+/Pjhj/cDaHhghtBz3v1xjdx8BD58+P2nQf0SMzBDIN55/+7Tp0//eff+1pfh978ZpOFwePyG68ZjN+x0Ol/dj68EQRAEQRAEQRAEQRAEQRAEQRAEQRAEQRAEQRAEQRAEQRAEQRAEQRAEQRAEQRAEQRAEQRDEX5r/AmD/nGtf+8FVAAAAAElFTkSuQmCC;imageBorder=default;" parent="1" vertex="1">
          <mxGeometry x="-560" y="45" width="225" height="225" as="geometry" />
        </mxCell>
        <mxCell id="FOuPMx6KwlrgepM2unAe-27" value="&lt;span style=&quot;font-size: 100px;&quot;&gt;Ingestion&lt;/span&gt;" style="text;html=1;align=center;verticalAlign=middle;resizable=0;points=[];autosize=1;strokeColor=none;fillColor=none;" parent="1" vertex="1">
          <mxGeometry x="-855" y="-770" width="430" height="130" as="geometry" />
        </mxCell>
        <mxCell id="FOuPMx6KwlrgepM2unAe-28" value="&lt;span style=&quot;font-size: 100px;&quot;&gt;Transformation&lt;/span&gt;&lt;div&gt;&lt;span style=&quot;font-size: 100px;&quot;&gt;and&amp;nbsp;&lt;/span&gt;&lt;span style=&quot;font-size: 100px; background-color: transparent; color: light-dark(rgb(0, 0, 0), rgb(255, 255, 255));&quot;&gt;Load&lt;/span&gt;&lt;/div&gt;" style="text;html=1;align=center;verticalAlign=middle;resizable=0;points=[];autosize=1;strokeColor=none;fillColor=none;" parent="1" vertex="1">
          <mxGeometry x="105" y="-834" width="690" height="250" as="geometry" />
        </mxCell>
        <mxCell id="FOuPMx6KwlrgepM2unAe-29" value="&lt;span style=&quot;font-size: 100px;&quot;&gt;Visualization&lt;/span&gt;" style="text;html=1;align=center;verticalAlign=middle;resizable=0;points=[];autosize=1;strokeColor=none;fillColor=none;" parent="1" vertex="1">
          <mxGeometry x="1010" y="-770" width="580" height="130" as="geometry" />
        </mxCell>
        <mxCell id="FOuPMx6KwlrgepM2unAe-33" value="&lt;font style=&quot;font-size: 50px;&quot;&gt;S3&lt;/font&gt;" style="text;html=1;align=center;verticalAlign=middle;resizable=0;points=[];autosize=1;strokeColor=none;fillColor=none;" parent="1" vertex="1">
          <mxGeometry x="242.5" y="-470" width="80" height="70" as="geometry" />
        </mxCell>
        <mxCell id="FOuPMx6KwlrgepM2unAe-36" value="&lt;font style=&quot;font-size: 50px;&quot;&gt;Quicksight&lt;/font&gt;&lt;div&gt;&lt;font style=&quot;font-size: 50px;&quot;&gt;-triggered by&lt;/font&gt;&lt;/div&gt;&lt;div&gt;&lt;font style=&quot;font-size: 50px;&quot;&gt;step function&lt;/font&gt;&lt;/div&gt;" style="text;html=1;align=center;verticalAlign=middle;resizable=0;points=[];autosize=1;strokeColor=none;fillColor=none;" parent="1" vertex="1">
          <mxGeometry x="1037.5" y="-150" width="310" height="190" as="geometry" />
        </mxCell>
        <mxCell id="FOuPMx6KwlrgepM2unAe-37" value="" style="shape=image;verticalLabelPosition=bottom;labelBackgroundColor=default;verticalAlign=top;aspect=fixed;imageAspect=0;image=data:image/jpeg,/9j/4AAQSkZJRgABAQAAAQABAAD/2wCEAAkGBxANEA0NDQ0RDQ0NEA8TDQwOEA8VDQ0NFREWFhURFhcYHSggGSYlGxMXITEhJSotLi8uGB8/ODMsOSgtLysBCgoKDg0OGhAQGisfHSYrKy8tLS03Ly4tLS0vLis3LTArNystKysuNy0rLSsrLSstKy0tLS0tLSsrKzcrLSstLv/AABEIAOEA4QMBEQACEQEDEQH/xAAcAAEAAgMBAQEAAAAAAAAAAAABAgYABQcEAwj/xABNEAABAwIACQcHBgwEBwAAAAABAAIDBBEFBhIXITFUk9EHExZBUZLSFDRTYXGz0yJydIGioyMkMjVCQ1JVkZShsTNkg8EVRGKCwuHw/8QAGwEBAQEAAwEBAAAAAAAAAAAAAAECBAUGAwf/xAA4EQEAAQIDBAYIBQQDAAAAAAAAAQIRAwQVBSExkRJBUVKh0RM0U2FxcoGxFDNiweEi0uLwIzKi/9oADAMBAAIRAxEAPwDULT9BKCQQKBQKBQKBQKCSBQKBCBRSgVAoFBJAoFAhAoJBAqBQKDEFfC0hQKCQQKBQKBQKBQKCSBQKBCBRSgVAoFBJAoFAoFBIIFQKDEFfWkIQKBQSCBQKBQIQKBQKCSBQKBCBRSgVAoJIFAoFAhAhBIIFQYgr62yUUhQKBQSCBQKBQKBQKBQSQKBQIQKKUCoFAoJIFAoEIFBIIMQV9aZKBRSFAoFBIIFAoFAoFB6KGkkqJGwwsMkj/wAlrf6knUB6yj54mLRhUzXXNohecHcnNwDVVJDjrZABZv8A3O1/wCl3R423N9sKjd7/ACjzfWs5OWW/F6p4d1CZrXNPqu0C3tsUuzh7dqv/AMlEW9383UnCmDJqOQw1DMh2tpGlj2/tNPWP/jZHeYGYw8ejp4c3j/eLyqvsQgUUoFQKBQSQKBQKBQKCvrTJQKBUUhAoFBIIFAoFAhB1jk9wO2npWVBF5qoB5d1iE6WNHqtZ3tPqCkvJ7WzM4mNNEf8AWnd9evyajGXHuRkr4KINDY3Fr53jKL3jQcgarA6Lm9/6lZzMlsemqiK8a+/qj93lwNygTMe1tYGyQkgOkY3JkjH7VhocPVa/9ks+uY2Lh1U3wd09k8J8lxxowS2vpntABka0vp3j9sC4APY7Ufb6go6bI5mctjRM8OE/D+HHGm+ntWntUkQhAopQKgUEkCECgUCECgr4WmSgUCgUUhQKBQSCBQKBQdzwI8PpKVzNAdTxZPq/Biyy8NmYmnHrirvT93EHxOjLo3jJfGS17TrD2mxH8QtPcRVFUdKnhO+BdFdwwFE6KkpY5dD44Ig8H9FwYLg+xZeGzVUV49dVPCaptzcTkeHOc5uhriS0dgJ0LT3ERMRESxFKBCBRSgVAoFBJAoFAoK8tMpBAoFAoFFIUCgUEggUCg6Jyc4xtyBQTuyXNJ8mc46HtJuYr9oJNvUbdWmS87tfJT0vT0Ru6/Pz59beYwYnU9c8zXdBObZUkdrSWFgXNOvR1ix1diXcLKbTxcvT0P+1PZPV8HwwLiLTUr2zPc6pkYQWB4aI2uGp2SNZ9pKXbzO18bFpmimIpieNuL54+4xNp4n0kTr1Mzcl1j/gxOGknsJGge2/VpQ1srJTi4kYtUf0x4z/vHk5eFXqkggUCgQgUUoFQKBQSQKDEFfC0yUEggUCgUCim6g3cWKeEHtDm0UmS4AjKMbTb1hzgR9YTc4c7QytM2nEjx/aE+iGEdif34fEl4Z1LK+0jx8j0QwjsT+/D4kvBqWV9pHj5HohhHYn9+HxJeDUsr7SPHyPRDCGxP78PiS8GpZX2kePkuuJDMJxyuirhJ5KInZBldE5wly2WGUCXH5Jdr7FJs6XaU5OqjpYNulffa8brT9ONntx1/wCIEQMwcH5LhL5QYzEHj8jIALjca3atOhIs+OzfwsTVOYt1Wvf334fTioLsU8IkkmkeSSSXF8RJJ1knK0q3egjaOUiLRXHKfJnRLCGxv78PiQ1LK9+PHyPRPCGxv78PiUNSyvfjx8j0Twhsb+/D4kXUsr348fJhxUrx/wAm/vReJDUsr348fJqHNLSWuBa5pIc0ghzXA2IIOpVzYmJi8MCBRSgVAoJIEIMQV8LTJQKCQQKBQKD2YH01NIDqNTTgjtHOtR8sf8qv5avtLuuE65lLFJUS35uIXdki7rXtoH1rDxGDhVYtcUU8ZVzOHQds26PFWzsdGzPu5nOHQds26PFLGjZn3c2ZwqDtm3R4pY0bM+7mzOFQds26PFLGjZn3cznBoe2XdHiljRsz7ubM4FD2y7o8UsaNmfdzZnAoe2XdHiljRsz7uZ6f0PbLujxSxo2Z93NnT+h7Zd2eKWNGzPu5s6fUPbLuzxUsaNmfdzbzA+FYq2PnoMrIyi35QsbjXo+tHBzGXrwK+hXxcsxzFq+s+ez3TFXrdm+q0fCfvLTKuaQgUUoFQKBQN0FfC0yQgUCgsWKuKc2ExI9kjIYoiGmR4Li6SwOSGi2oEEm/WNfUmbODnM/RlbRMXmer3LBmul26PcO8anScHXaPZzz/AIOa+Xbo9y7xpc12j2c8/wCH3oeTaWKWGU1jHCKWJ5aIXAuyHh1r5XqS754m26K6KqehO+Jjj2x8F2w/g81lNPTNeIzM2weRcN0g3t16ll02VxowcWnEmL2UTNjLtse5d4lq7vddo9nPP+GZsZdtj3LvElzXaPZzz/h4sNYgz0kElQJ2TNhaXSMDHMcIxpc4XJvYabaNAPsS77Zfa+HjYkYc0zF+HXvVII7coFAoFAoFB1Xk28y/1pf9lmXlNs+s/SFHx0/OFZ89numKu92b6rR8J+8tMq5xQIQKKUCoFAoK+FpkhAhAoOr8kPmlT9Ld7mJSp5nbn51Py/vIxpx6loKqWlZTxyNYIyHue4OOUwHUPapELk9l0Y+DGJNUxe7U50J9ki77+CvRcrQ8PvzyOc+fZIu+/gljQ8PvzyZnOn2SLvv4JY0PD788jnOn2SLvv4KWNDw+/PIjlNnNvxSLvv4JZNDw+/PJesavMMIfRKn3Tkp4ulyPrOH81P3hwxV7dIIFAoFAhAhBZcX8cJKCHmGQMkGW52U5zgbm2jR7FLOszezKMxidOapjc1GFq81c8tS5oY6UglrSSBZob/4qubl8GMHCjDib2eVH2KBQIQKKUCoFBXgtspBQKBCDq/JB5pU/S3e5iUqeZ25+dT8v7y1eO+KtdVV009PTc5E5sQa/nYG3IYAdDnA6wkS5Ozs/l8LLxRXVad/VPb7oaLoNhPY/vqbxq3hztUynf8J8j0Gwnsf31N40vBqmU7/hPkeg+E9j++pvGpeDVMp3/CfI9B8JbH99TeNLwaplO/4T5FuJGErj8T6x+up/Gl4J2plO/wCE+TqeNXmGEPolT7lykcXmMj6zh/NT94cMVe3KCQQXPEPFeCvjmnqC5zWSc22NjskXDGuLiRp/TAH16+pLptqZ/Ey9VNGHbfF7/WY/ZaugOD/Ryb6Tipd1esZrtjlDOgVB6OTfScUuaxmu2OUHoFQejk30nFLmsZrtjlDOgdB6OTeycUuaxmu2OUM6CUHo5N7JxS5rGa7Y5QeglB6OTeycUuaxmu2OUM6C0Ho5N7JxS5rGa7Y5Q0eOGKVPS05qacvYY3MD2OcXNe1zg3r0ggkf1SHP2dtPFxsb0eJab393Deo6rviECilAoK8tMkIJBQIQXHEXHGPBjJoZ4ZJI5H8410OQXtfkhpBDiBazR19qkxd1W0dnVZmqmqiYiYi2/wDi6050aLZqvuU/xU6LrdDx+9T4+TM6FHs9X3Kf4qdE0PH71Pj/AGvtScpNJLJFE2CqDpZGMaXMgyQ57g0E2kvrKnRZr2LjUUzVNVO6Jnr6vos+FsIMpIJamRrnMhblOawAvIuBouQOvtUdbgYM42JGHTxntVPOdR7NV9yn+KtdF2uh4/ep8f7TnOo9mq+5T/FTomh4/ep8f7Wuxg5QoKmmnp4KeYPnjfGXTCIMax4yXH5L3EmxKWs5GV2PiYWNTiV1RaJvuv1fGIc+CO/KBQdS5J/NKn6W/wBxClTzG3fz6Pl/epo8dMYKuCuqIoap8cbOayWNybC8TCdY7SVIhzdnZPAxMtTVXREzv+8tL0qr9tk+xwVs52n5X2ceJ6VV+2yfY4JY0/K+zjxPSqv2yT7HBLGn5XuR4npTX7ZJ9jgljT8r7OPE9Ka/bJPscFLGn5XuR4thgDGOskqqWOSqkcx80bXtOTZzS7SNSOPm8jl6cCuqmiImIldeUH831HzoPfsSHSbI9bp+v2lyZV68oEIFFKCvBaZKBCCQUFmxQxPkwo2WQTtp4onBmWWF7nSWBLQ3KGoEab9aTNnX53aFOVmKej0pnf2bvFY81Lv3iP5U/FU6Tga7Hs/H/Fmap37xH8qfip0jXY9n4/4vvQ8mTopYZjhAO5mWOTJ8mIysh4da/Om17J0mcTbcV0VU+j4xMce2PguuHsHeWU09Ll81zzcnnMnKydIN7XF9Xasuny2N6HFpxLXsouax37xH8qfirV3d67Hs/wD1/izNa794j+VPxUua9Hs//X+Lw4b5PZKSCWpbVtnELS98fMmM820XcQct17C5sl7vtl9sUY2JGHNFr7uN9/KFMVdyQoFB1Lkn80qfpb/cQpU8xt38+n5f3qVfHylldhCqc2GRzTzNnNjeWn8CzrASHabLxKIytETVEceuO2Wg8hm9BLupOCOf6XD70c4S8hm9BLupOCHpsPvRzg+RTegl3UnBD0uH3o5wfIpvQS7qTgh6bD70c4PkU3oJd1JwQ9Nh96OcNli3SSisoy6GQATx3JjeABlDSTZRxs5i0Tl64iqOE9cOh8oP5vqPnQe/YkPO7I9bp+v2lyZV68oFAhAoqvLTJCBQIQda5HvM6n6W73MSzU8ztz86n5f3l58b8eaqhrJaaGOndGxsZBkZKX3cwE3IeB19iRD6ZHZmDj4MYlUzffwt5NNnOrvQ0u7m+IlocvRMv21c48jnOrvQ0u7m+IloNEy/bVzjyOc2u9DS7ub4iWg0TL9tXOPI5zK70NLu5viJaDRMv21c48i3lLrrj8FS6x+rm+Ilk0TL9tXOPJ0TGvzDCH0Sp9y5SOLocl6zh/NT94cJWntiikKC/wDJtjBTUsU9PUyiFzpjKxz9DHNMbGEX1AjI6+32pLodr5PFxa6a8OLxa274zP7rl0qoNug3gUs6jT8z7OeTOlNBt0HfCWPwGZ9nPJnSmg26HvhSx+AzPs55M6U0G2w98JY/AZn2c8mdKKDbYe+EsfgMz7OeR6UUG2w98JY/AZn2c8mdJ6HbYe+EsafmfZzyV3HrGOlmpH08EzZpJXR/4elrGteHEk6v0bW16VYdjsvI41GPGJXTaIvx98Wc6VekSQKBQYiq+tMlAhAoOt8j3mdT9Ld7mJZqeZ25+dT8v7y8GOuJtbW1s1RAyMxPbGGl0ga67WAHRbtCRL7ZDaOBg4EUVzN9/U0ebrCXo4t8OCXhzdYyvbPI5u8I+ji3w4JeDV8r2zyObvCPo4t8OCXg1fK9s8jm8wj6OLfDgl4NYyvbPIt5PcI3H4OLWP1o4JeE1fK9s8nTsa/MMIfRKn3LlI4vO5L1nD+an7w4QtPbFAqKQgUCgkEG7wPitVVsfPQNYY8otu54Byhr0fWl3CzG0MHAr6Fczf4NdhCifTSyU8oAkiIDw03Fy0OGn2EI5ODi04tEV08JfBH0KBQKBQSCBQYgr60yUUoEILfiNjmMFtmhlhdLDK/nAYy0SMkyQ06DoIIaOvRbrvokxd1m0NnTmpiqmq0xu38LLTnVptkqPufEp0XW6Hi9+nx8jnUptkqPufEnRNDxe/T4+T7UfKZTzSRQilnaZZGMDjzVgXuDQTZ3rU6LOJsXFoomrpRuiZ6+r6LZhnCLaOCape1z2wtynNbbKIuBov7VHWYGDONiRhxumVOzpU2yVH3PiWui7XQ8Xv0+PkzOlTbJUfc+JOiuh4vfp8fJrsYOUVlTTT00FNIx07HRufKWWbG4WcQGk3NiR1a/qSIs++V2PVhYtOJXVE2m+6/GPioKrvSgUCikKBQKDrXJj5j/AK0v+ykvKbZ9Z+kKJjv+ca358fuWKxwd7s31TD+E/eWkRzigUCgUCEEkGIK+tMlFKBQIQKBCD3YD86ovpVN75qj5Zj8mv5avtLvWHMHCsp5qVzzGJm5JeACW6Qb2+pYeKy+NODiRiRF7KVmsi22TdsVu7fXK+5Hic1kW2ybtiXNcr7keLM1sW2ybtiXNcr7keJzXRbbJu2Jc1yvuR4szXRbbJu2cUua7X3I8Tmvi22Tds4pc12vuR4nNhFtkm7ZxS5rtfcjnLM2EW2SbtnFLmu19yOcnNjFtkm7ZxS5rtfcjnLM2UW2SbtnFLmu19yFpxbwKMHweTtkMoy3OynAA/Kto0exR1mbzU5nE6cxbc5Xjv+ca358fuWLUcHqdm+qYfwn7y0iOcUCgUCgUCgUFeC0ykgUCilAhAoJNcQQQSCCCCDYgjUQepBb4eUjCLWtaTA8gAZb4jlu9ZyXAfwAUtDq52Plpm++Pr/CecrCHZTbp/jUtCaNlv1c48jnKwh2U26f40tBo2W/VzjyOcnCHZTbl/jVtBo2W/VzjyOcjCHZTbl/jS0GjZb9XOPJacRMY6/CEr/KYWilETiydkMjWOly2ANDi4h2gu1dikxDrdpZPLZeiPRz/AFX4TMTutPu+D2494ZraEQPooRJG7nfKHuikkbFbIyCckjJBu7SexSLPjs3LZfHmqMWbTutviL8b8fopQ5R8If5bdP8AGtWh3OjZb9XOPJLONhDsp90/xqWhNGy36uceTM41f2U+6f40tBo2W/VzjyOcWv7KfdP8aWg0bLfq5x5E8olf/lx6xE+4+2loNGy36uf8KxUVD5nvllcXySOLnvOtzj1/+kdpRRTRTFNMWiEAjRQKBQKBQKBQV5aZIQSQKKUCgQgUCEEgoEIEIL7yc4pMqh5dVsy4GuIghcPkSuabOe4dYBuLdZBvq0yZdLtXaFWF/wAWHNp657PdC+Ybxmo8H5LJ5cl5ALYI2l0mT1Gw/JGjWbalLOky+Sx8xvojd2zwfHAuOFFXPEUUpbKfyYpWljn/ADb6HewG6WbzGzsfAp6VUbu2N6ucomKTObkr6VgY+O7qmJoAZIz9KUDqI1ntF+vXYl2GytoVdKMHEm8Twns93l5OaqvRFAopCgUCgkECgUCgUCgUFeC0yUCEEkCilAoEIFAhBIKDCUH6BxehEFFSMaLhlPFq/SOQCT9ZufrWHh8zVNePXM9cz93BqqsfUySVEpypJnF7z6z1D1DUB1ABbe2ow6cOmKKeEbkGOLSHNJa5pBa5ps5rgbgg9RBRqYid0u/YFqDV0dNLKATUU8bpG2+SS+MFw9mkrEvDZij0OPVTT1TNvpLgr48guZe+QS2/bY2v/Rbe4irpRftCKUCikKBQKCQQKBQKBQKCvLTJCBQIQSQKBRSgQgUCECoO3cneF21dDCy/4Wla2GVvWMkWY762gG/bfsWZ4vIbUy84WYmeqrfH148pUrGrEKohlkloojPTSOLmxsI5yC5uWZJ1gdRHVr1XNiXb5PauFXRFOLNqo5T/AL1vJgLEOsqntE8TqSC/4SSSwkLesMbrv6yLD16iu+uY2rgYVP8ARPSq6ojh9XUMPYRjwZRvkADRDGGU8fU6S2TGwf09gB7Fl5zLYNWZx4p7ZvM+7rlwdvtv6zrK29skgUCgVFIQKBQSCBQKBQKCvLTJQIQKBCCSBRSgUCECgQg2OA8MzUEonpn5LrWex2mOVn7Lh1/3Cj4ZjL4ePR0K484+DpuDOU2jkaPKWSUz7fKs0yRE+ot+V/FoWei89i7FxqZ/45iqOU+O7xfWu5SqGNpMPO1L+prY3Mbf1l9rfUClpZw9jZiqf6rUx8b/AGu5xjJjHPhKQSTENjZfmoGX5uMHr/6j6/7alqNz0GUyeHlqbUceueuf97GpRykggUCgUCikKBQKCQQKBQYgry2ykoFAhAoEIJIFFKBQIQKBCCQUCECECgUEggUCgUCikKBQKCQQKDEFeC2ykgVAoEIFAhBJAoFFKBCBQIQSCgQgUCECgkECgUCgVFIQKBQSCDEFeW2SEEkCoFAhAoEIJIFFKBQIQKBCCQUCECECgUEggUCgUCikKBQKBQV5bZKBCCSBUCgQgUCEEkCilAoEIFAhBIKBCBCBQKCQQKBQKBRSFAoFBXgtsJIpQIQIUCgUCEEkCECECilAoEIFBIIEKBCCQQKBQIQKBQKBCipBBiI//9k=;" parent="1" vertex="1">
          <mxGeometry x="170" y="-1150" width="225" height="225" as="geometry" />
        </mxCell>
        <mxCell id="FOuPMx6KwlrgepM2unAe-39" value="&lt;font style=&quot;font-size: 50px;&quot;&gt;Step Function&lt;/font&gt;" style="text;html=1;align=center;verticalAlign=middle;resizable=0;points=[];autosize=1;strokeColor=none;fillColor=none;" parent="1" vertex="1">
          <mxGeometry x="117.5" y="-1240" width="330" height="70" as="geometry" />
        </mxCell>
        <mxCell id="FOuPMx6KwlrgepM2unAe-40" value="&lt;span style=&quot;font-size: 100px;&quot;&gt;Orchestration&lt;/span&gt;" style="text;html=1;align=center;verticalAlign=middle;resizable=0;points=[];autosize=1;strokeColor=none;fillColor=none;" parent="1" vertex="1">
          <mxGeometry x="-35" y="-1540" width="620" height="130" as="geometry" />
        </mxCell>
        <mxCell id="m697ELH5VmtDTz1WUT-L-1" value="" style="shape=image;verticalLabelPosition=bottom;labelBackgroundColor=default;verticalAlign=top;aspect=fixed;imageAspect=0;image=data:image/png,iVBORw0KGgoAAAANSUhEUgAAAOIAAADfCAMAAADcKv+WAAAA9lBMVEX////1hTSdUCX8v5KXTCT6iDWZTiTWcy/kezHGaSyqWCfwgjO5YSqwXCjpfjKcTiLddzCiUyaiWjL1gSqaShmYRQyVOwDXvbK9j3rRby71jED0ehH/xZf1fR/83Mr8u4r7tYP17uv+8uuUOgCXQgCpaUr4rH75qHC6inT3mlrsrYH4roLv5eD2jkX1gCb/+fbFno395di+eVDWlWv3lFD4oGP82cbjbwz70bqxeV/Mqpv6xqnm1s/96d790LH8x6Djo3jcj2GlYD35uZTcxr2oURnmhESsclf0cwD5v568VwDQaR2+XhrftaGqSgDisZPSkGfBdkhj4gG+AAAHyklEQVR4nO3deV/aSBgHcBIIrUeLJVw1BAWpYEEOixQR1FVb1227233/b2ZncpELMklmcu3z+6+VzyRf5knIkMyQy2Us7efGH624d4JdhvV+pVatvJEv53HvCosgXhXxSjxffMNxmUMOlzfVrsLDwcSsIR9R7/GbqMT4kO3lbYd2m59KPO9CjAU5XKI3fCTNXtehm2qbmthKjBq5mpRr1RJfFDhuJB0/TYO31K43ymdfZwv93zuIGElj5wmyalS66ukAE1FGsjgI8vGFTpwlfOIsvBVkeaB25U4ix9GVuGb83O929dOdTkQRZfl8PvbR0LB+o30u8HzhLW5BUroyZmK7flPrWs53gmnroixdL4iUq+VLd/O5oBFxHcqDzku8xIrFZycqSpGgmf5Z1dqOTsQNHOzxhWJ8xLL1HXYSOe6YoJmG7Y0yEVEE4ejdBplJIlairixmm4i78rCYcSIn7AERiEAEIhCBCEQgAhGIQAQiEIEIRCACEYhABOL/gNhe1Se3U8ednEwQx8PnZf+xW+tWv41k6fjc6kw7EXXcSwnZtHtr+/gVotWZcuJBt1qpmF62v7nJajgblaK1mZQRC9ZX7FtfoTi/fzz8UDDfRMwUUdt/QTg4+vghy0QVcWj0IxD9E4fonPdNnJ0/3c6n/h5+SgFxvKo3HpVnJd4JoogOfVmSuAtsXRNZk01sr5Z9vqY/CVJ8t9kyoiLrnyTPXiWXOJy8VGvm51wsRDUyydNPySXWayXbvmWPWLXtGRCBCEQgAhGIQAQiEDNGHA9Xz8tJ/+X79fnT6+2iNe2M004UBEGeGrByt9bFXxJWSu9FdaSFhpXS6PKi98HRTjqIB0dv9vYO93kDtplb8N7SuiimlXhUKKLw9hp0EjkhtcSi/a9ABCIQgQhEIAIRiEAEIhCBCEQgAhGIMRDHbskWsWbO2V+Smh8ORIqJ1u3vqc0LH4EIRCACEYhABCIQgQhEIAIRiEAEIhCBCEQgAhGIQAQiEIEIRMpEy5ThrBHx4hUj/KtFy35Zc2aHKCpLc/Re58bU/PGqPvmEOvSnOsVilE5iVZ1V8UOW5IunhXNhoBzu0F+3i9a6k84b4aNFbtwerp7rv+YkqyrUzyo7Jr0nkSiK0h0BzNyfk0/drUsXJI2I18VAlRngp4+G9caj6wIUCSLis8pssAj1k0eruna+xURlHRFZehsX8ac+SQsT9WWbwuiMjFfLfulvSb7sDV4XrU5u1Y2HKLfGw1V92bgpd8++Cj2XxdRCOjftxUacuu0N9YzX09Y/VZdJbxEQR/nWdM3O1llP53f3+ROU/OerMp60GOnkPlEUjy9O1e3f382nZCsKEdJaBs1Is5n//MXNyYSo6HqneKtGdGorOHWMaAsHzRI3p5Uoks1CNU9jtREN3ZZ90KnqNRk12i6nTkS7Jh7MrnsnZW/icf7h91W5ZLxVGtFT55c67kwRrXlCStviLLwXNJxaV03H0eokck21BQytoDb2BX86B/WkebeZko6yXre0TvNPc3EaOO0/CYmbJh5+/xtQZ4kKuke9us7V9n9/boZt0Ii9JX9E1yZC5fT6WM7xpVKFv3oI/ba5p+mYNu5JpLbp/OkFOqD1727QsX71hYWy6fhgsRHRYXfJYrsnvRnm4RhfTyFlmWbJ6tuyf7BsiCFOKh7bPL2+1H2c9Rs4ViVr+WBRiMx0qMVztTw5V6KpZBlsW3e6XKpQ24apPLcT1c5kUbLKPjTzD2x0qFF09nT63IkMS5ZVXMrTi2iU7AmTd5xu3MuThMi2ZClle3kSElVlKakl28z3tpcnOVEr2cfEdSYqz0tvHilRK9mrh6Qom3nv8vRN1EuWyVWeX19vxpHy/BG1ko33/ENenkGJfJwfmbg8Cc4u4Yl8PCWLyzMALyhRYUZZsrahQ0REPqqS3XltxpqodSabgYnm87g2i4LIsytZkmuziIg8i5INX56UiQqTXslSKU8GRJ7OwIRaebIh8mEHJoRDh3iJCjPYwIRyeTIl8v5L1t/QIRFE3k/JquXJhseUqDC9SzbI0CFJRF4fS7t3Ji7PA8Y+TLT/mBoTpcvAJMTQwV/EXKPGHum4ygs3dPAFlAa5XLsfCdK4yjNuikUCPFefdmj3zyJBqld50ZSnBRgt0u0WagTASJERER1AFRnJMRkJ0RUYGTIC4lZgREjmxJ3ASJCMiZ7ACJBMiURA5kiGRGIgYyQzoi8gUyQjom8gQyQTYiCgimRwxcOAGBjIqCepE0MBmSApE0MDGSCpEqkAqSMpEqkBFSS9rz+oEakCFSStnqREpA6kiKRCZAKkhqRAZAZUkOGPydBEpkAVGfKKJyRRlAZsgRSQoYjMe9BAhjkmQxAjAyrI4MdkYGKkwFDIgMRIjkFKyEDEWICBkQGIsQEVpP8Tj29i5MegA+m3J30SYwcGQPoixlqi5vhC+iAmBojjA0lMTBQQhxhJSEwcEIcQSURMxEnGLURIAmIie1APAdKTmGggjifSg5h4II4HcicxFUCcncgdxNQAcXYgtxJTBcTZitxCTB0QZwvSlZhKII4r0oWYWiCOC9JBTDUQx4G0LyOSdiCODWkhZgKIY0GaiJkB4piQBjFTQBwDqREzB8TRkOp6N1kE4ihIRMwsEAcjMw3EaU8GDJf9dM1/jSggclHAsbkAAAAASUVORK5CYII=;imageBorder=default;" parent="1" vertex="1">
          <mxGeometry x="676.01" y="45" width="228.03" height="225" as="geometry" />
        </mxCell>
        <mxCell id="m697ELH5VmtDTz1WUT-L-2" value="&lt;span style=&quot;font-size: 50px;&quot;&gt;Athena&lt;/span&gt;&lt;br&gt;&lt;div&gt;&lt;font style=&quot;font-size: 50px;&quot;&gt;-triggered by&lt;/font&gt;&lt;/div&gt;&lt;div&gt;&lt;font style=&quot;font-size: 50px;&quot;&gt;step function&lt;/font&gt;&lt;/div&gt;" style="text;html=1;align=center;verticalAlign=middle;resizable=0;points=[];autosize=1;strokeColor=none;fillColor=none;" parent="1" vertex="1">
          <mxGeometry x="635.03" y="-145" width="310" height="190" as="geometry" />
        </mxCell>
        <mxCell id="hYPPhDHAA7ZH92lHZAwE-1" value="" style="shape=image;verticalLabelPosition=bottom;labelBackgroundColor=default;verticalAlign=top;aspect=fixed;imageAspect=0;image=data:image/png,iVBORw0KGgoAAAANSUhEUgAAAOEAAADhCAMAAAAJbSJIAAAA9lBMVEX/////S0u9QEN9NTv/RET/QED/QkL/Ojr/SUn/Rkb/Nzf/Pj7/PDz/PT25PkG+P0K5Ky//T0//urr/39+5LjK7Njn/9vZ1ISl7MTdzGiP/jIx4KjH/8PD/6up5NTv/k5P/pKT/0tL/s7P/m5v/WFj/fX3/bm7/x8eof4L/4+P/oaHQgILco6TitbbrzM3NeHq/o6WEQkfRvr/mwMGSXGC2lpj/ZGTKbW/p3+CNUleHSE3GX2G9R0rYUFLTT1H/wcH/aWnUjY7HrrCba2//goKZaGvf0dJwDhqkQESNQkbvU1TxU1PKTlC0SU2bRkq6nJ6eNjvVOz0tI80+AAAIeElEQVR4nO2de1vaSBSHRe63DRcBFVzuIlbb2ou11V2sbXXb7ra73//L7EwgIZPJZM5cAn14zvtXLWDye3g5c+YkpXt7CIIgCIIgCIIgCIIgCIIgCIIgCIIgCIIgCIIgCIIgCIIgiJDexbOL3rZPIkkua61Wq3a57dNIjuc1Z39/36k93/aJJIZDA5KIzrZPJCk+tvaXtD5u+1SS4Xlt32NHPd13/IS76anvqOvps22fjn0Cju6opwFHd9PTZ619ll3zNOToDnrqOFxCx2lv+6wswjm6a55GOLpbnrYjHN0tTyMddT19se1Ts4PAUdfT19s+ORuIHN2cp43rySDJ47wQOZq4p+2f3cOXJGCpWMjmBokdJsbRhD192e2m00cPe5NCKpUqZLOjZA7TbokddT1tJeTPQ7eTplzt1WlCkrFaXyRxoFhHk/P01dUyH03Yz6SWFPKTmfUjvY53NCFPHz8cHa4Cds/2mvlUys94PbR7KJmjiXj6+MbPRz6Hj3vLD+KKYum0afNgUkfte3rzKZAvfXhF/mqUTQUo5qcn1o4GcNSypzdnwXxEUrJa7LVLKYZM6djS3B3iqFVP22dH3TTDk/ubP2fYiKlcaWzlkCBHXU/f2Thc+204X/rwk/vIMJ8Kk8sOzI8IdNSWp+4CH6LzavlYvcBFLGTLpi1AuwZz1PW0ZiqNt8CHWD06yHIJScayYQsAdtSCp+sFnqH7dvV4rxSRkGSsmLQACo66nhpccnv80DmMCpg+uvGeMi1GRjRpAdoHcEddTw90PWUWeLbOvPGfNONrzQrtFuCdiqMUTU9vvojyresMpcDXmnXG6Vz9wJdqjlJ0PGUbGO5jGHjmeU6YUKsFgK71QdQ95Rd4NuBZ4Lkn0bVmnVGxBVB2lKLoacQCL6ozlFNBrfFQawE0HKUoeRq1wLN15j3z/Fk1PqFSC9BTrKMezgH40yBY4IN0HtiXZMW1xstYrjdgh9dylAL1VLDAhyQNvWgcV2u8jLAWQNNRygHEU5IvpoB6MHWGMo+vNV5GQAvQ06ijHgBPH9/HLRCBt/Ax/Mp7Sa1ZIW8BbnUdpbRu43953ALPcPiBe22jDEroTgHiWoDLA4OAEk/jF3hW0pf8y0GausS1ALp11CPGU8kCz/IUsYAfh7f6sRn7ghbAyFE3osBT6QLPvoWfIn5FE/4mpmgLcB51HoaOUqI9/Slb4Fn4OkO5li6JQQrZKt8C9BT29cI3scZ7+tBRyrccIvKMoLXGy1hOhVsAY0fdiGFPX6UBCzxD92dkwvBYEZCxUmdaAAuOUlhPYQs8y5OgXHFjRUDGYAtgw1FK0FPoAs8Q2NyzRIwVARnXLcCtnYABT2+EE4pYgpt7lolSrfHwpgAXdhylHFy4+eALfOg9FAWMHisCIC3AiTVHKdTTnsoCz+APEXkEY0VQxvG7mDsS1CPeKi3wLOzmnkU0VgSQS327+81exNZfv+sGDG3uWbRqjUeh/ofFjM5X3YTiOkNJadWaYEZrCe9038ROXEDtWuNnnFjL6Gh6ym3uWSRjRVDGPy2pqulpXJ2hyMaKkIzf7WTU8zRic88yqxgnJJ/l73/byKjlaXiIyJMzqjV+xm82Mup4eiSdzkPGirCM5kuHhqeSOkOBjRUhGevmGdU9jd7cs1ioNX5G4xZA1VPB5p5lobjVTzSjqqdRQ0SevI1aE8xoFPEfpYhRQ0Sevp1a42PWAih5evgFEjB4t6IdjNocJU/jm+41amNFSESTFkDJU1hA+CWMzWR0fkDzxWzuWdTHiiC02xywp0+SpnuNyiUMONotANRT4RCRx3qt8TPqLY9AT6F1hqI3VkwsI7CeduXBfEaGW31JRvWIEE/BdYaSUK3xMyq/jRBPZZt7Fo1LGCoZ1VuAuytZwNghIo/RWBGC6vIo91S+uWeJuDN6uxmlnnYUb/wzHStCUGsB7uIDAjb3LPqXMOCoTToknkI29ywGlzAUMqq0ObGeSoeIPDbGiqCM8BYgrp52QJt7lmLitUY1Y5yn8iEiT+yd0bYzAiMKPY28Q0iG+SUMhYzAFkBYT9XrDMXeWBECKKPIU9AQkWchuzPaMpAWwPkRGVFwh5CUyoZqjQ+kBYisp7AhIo/tsaIUwAWdSE8VNvcs86Tb78iMkqUjylOVzT2L9bEiJKO0zeE9Fd8hJCOBsSIoY2wLwHuqtLkPYfUShlpGBU/VNvcsyYwVjTOynipu7lmSGitCELcAIU/16wwlsbEiBGELwHqqMkTkSXCsaJQxcMlNeXPPkuhYUY6oBQh6alJnKMmOFSFELo9rT43qDCXxsaKc6BbA81R1iMiT/FhRSlQL4HuqOkTk2cRYUUrE8rjy1LDOUDYxVoTAZ3Q91dvcs2xkrAihzrYArqeam3uWDY0VIbBtDvUUdoeQjE2NFSGwLcBXrSEiz+bGihACGZ074B1CMjY5VoSwXh6dfy3UGcpmx4oAvIzOnZ2Aiv+6dBOsWgB7X9M73n7rFoZeCKhd2ApI9vpbGmfEUf/P6ndJj/Jb32OEKJYGNgOSgjotlTMxX0W0UQqFXOle45uPJPQax5NMPl8t5zLFrUQtFIqZbLmSz5cLk7H9fEvaveascX58OqmWSuRIWRKWpE0uLvndRRIrW87nS6Xs9bQ/aAybvQ19C3hvPlyMBv3p/SSVI3ErZZqXvrsmgZeJMjmSqUpCVYr161MSazQbzrf6v0S12yfN4awxOO9/Pr2u58rVKlEpn69Uy4QsIbck4+P+mHUhT6lW/OdnJvfT4/54MFrQUL/uV7a3eyfz+XA4WywajdFoNBicj8fjPuHYhfyB/Hw+GJDHRo0FCTNsNucnv3AgBEEQBEEQBEEQBEEQBEEQBEEQBEEQBEEQBEEQBEEQBEGQzfE/0XoU+1lpl0sAAAAASUVORK5CYII=;" parent="1" vertex="1">
          <mxGeometry x="1429" y="45" width="225" height="225" as="geometry" />
        </mxCell>
        <mxCell id="hYPPhDHAA7ZH92lHZAwE-3" value="&lt;font style=&quot;font-size: 50px;&quot;&gt;Streamlit&lt;/font&gt;&lt;div&gt;&lt;font style=&quot;font-size: 50px;&quot;&gt;(&#39;Anonymous&amp;nbsp;&lt;/font&gt;&lt;/div&gt;&lt;div&gt;&lt;font style=&quot;font-size: 50px;&quot;&gt;embedding&#39;&lt;/font&gt;&lt;/div&gt;&lt;div&gt;&lt;font style=&quot;font-size: 50px;&quot;&gt;into streamlit&lt;/font&gt;&lt;/div&gt;&lt;div&gt;&lt;font style=&quot;font-size: 50px;&quot;&gt;for&amp;nbsp;&lt;/font&gt;&lt;/div&gt;&lt;div&gt;&lt;font style=&quot;font-size: 50px;&quot;&gt;public viewing)&lt;/font&gt;&lt;/div&gt;" style="text;html=1;align=center;verticalAlign=middle;resizable=0;points=[];autosize=1;strokeColor=none;fillColor=none;" parent="1" vertex="1">
          <mxGeometry x="1366.5" y="-330" width="350" height="370" as="geometry" />
        </mxCell>
        <mxCell id="E4Af9fd59H3xyiRp7Fkf-2" style="edgeStyle=orthogonalEdgeStyle;rounded=0;orthogonalLoop=1;jettySize=auto;html=1;entryX=0;entryY=0.5;entryDx=0;entryDy=0;shape=flexArrow;fillColor=#a20025;strokeColor=none;strokeWidth=6;" edge="1" parent="1" source="E4Af9fd59H3xyiRp7Fkf-1" target="FOuPMx6KwlrgepM2unAe-10">
          <mxGeometry relative="1" as="geometry" />
        </mxCell>
        <mxCell id="E4Af9fd59H3xyiRp7Fkf-1" value="" style="shape=image;verticalLabelPosition=bottom;labelBackgroundColor=default;verticalAlign=top;aspect=fixed;imageAspect=0;image=data:image/png,iVBORw0KGgoAAAANSUhEUgAAAJcAAACUCAMAAACp1UvlAAAAgVBMVEX////6fhT6eAD6dQD6bgD6egD/9fD6cwD8v576cQD6fAv+7eT+8uz//fv+6eD8vZv91sL93Mv90bv+4NH8to77jkv8rH7+5Nb6hCv7jUb8sIb7m136agD7iD79x6v7n2r7kVP8tpT7l1b7p3X6iTb9zbP6fCD6fiv8onT7mGL5YgD/2+16AAAGIElEQVR4nM1c6WKyMBA0wYAEsCgqeFu12n7v/4Afaq2CyYRwJM5fr3F3WPYKvZ4SHw6pAu9L/VWtoiIvtntPXoSM3pMXnbwnL34KjfIaVPVjf/yevNj8PXkRkr4nL/r5nrx4ZlL5Gn70TSpfg5dR5WvwInT4prwW78mLz80pX4eXyZivxcug8rV4ES94T17mYr4eL3PKH/zrv8AHjowN8YrcVyRc7si9IV5CLJmU2Mps2lrEWO5J03l+AYHckXxq0WDRlkqJOYYLtgI2cl5WlT88SXmRlWuR2FR+RVpV/sCTK39n0WChnBdxzFa4Bbh74MitPV69gfyKtKr8kZwWcT7s8erNUcy3aLAFSMyoqWxHgGEf8DrY4xUd5Y4kvkVHToAjvYE9XrE8guV5fmSNl7sGjuQWlX8AodWm8mNQFxHHnvIjYC/iWYz5IJvOlW+P1xjV4haVP8zAFWmySVdCmgF7EWqtYJsh4RN/Y4nWCNy5LwI72qEF4/2VmJ0KdwK9SGwpP0HR/mYvYkH5Eahs77ChfKUXLwbLjNMKKtDKFWZc+XO1Fy+8ZoZpfVUyV+5IY/38K4ZcEbruMKz8ZTVzmY75m+qzBs+g8kNUOZZgMuajNPXVkcaUP1LegAqONLWAFYJGjgDMVMyfgQ6mCH0zw/gEJ4OvMBPz3amWF3PwtQnlV16fe8Az0J4OVtq0COs+5kc/ldKIEladOxJMOQA6V77r6Ir+is6H8WDGAdFxzI817osFsE5HkiGt5cULOlU+7kZAdJntqFJ6lFrzdWfKh2OEi0km6A20s5g/wzcguuxtQF6Wv9wNRtiLnAZ5dANv6HejfFfRjXAu9Ri6MDpS/ifOnW+TYziYWXfRz0+x5rlzvdwilJvRDmJ+tMfquv8mSs7osv1JliKN+LvYXJRj+62HsACLi5/+LIEmWU7byo++sRedR29kjAYzx5YdieIlKUYAk8p3cU+Je88BAHU36aFVgym6EcVWJVZ+mxUukgx5ncuizpjX4gJW5GMvnkrvRzktP7fnSLRVQgQrVbAeb0/5ipResBpnRvlnmEaw0+vvuKgipy1lO2ilJIeTCD6DirmWlJ9AVpIFxxjcTF8uk3pYYy+KO4Gwn9hKnv+huAGJvJjjEyn/uzmtFOzO5nBkWglgR7F5zN/BGAEO1KKZVvM1lC/sRV/ixR7e22msfLQBnYOCgVSIYn7TpVuUeuZeXKPIDQu2ZsofQ/H+FkAyBLAeaKL8EG3eqBdnUeDzmowkcU+J/ig+Ds5/EE7r00L3kkvqrHIFNHe/9kgyOmMvqj2Bsh1WW/kLhRfVWVSK0taspvITmN0UCyAZjkj59ZZuI/SdlbzYUyi/XszHoym6rZQLY+XL72FyJFBcvOpeKtIokxy0SFG0nkNelUcXI9SePgqUP5zsTuBUJ+4paYygYLZT0mgYT/iKcpZJnRHAGxDvV+9GbsAfLIwko/F27twmYn3pIxmm0IuOxq4s7LesfpUfpZvpymf3d0rdgdMIvSVxpPzbN6WTH+I/u5ufxV+l8KJefwGd5OFZnBwcj5Y1KFnh3MLQpTtAh+cGmC8yp/icdYy9qHs2GylfArYXXFghXJTlJ93JQJ2xsyiFwj2lGptcNSaWgjoOb7jUGfDE+vZ6XbDDGy64AJIAtqdl/78cWnFPyauTAtTZt6AlR+LaquaZWdieFoMV86gILsqyac0GZA3l88IVCQ5k5/DrPuJI0WUX/tZzJjX0kEJp7VNw0U5b+Wz99Pkf9L9qXYu/qLJ2XsLTGUX8UI4mDy2J9JX/8I57QtZu1kqrvLL8h0fdCz/b8DS2YsFBgL+6Fx7narr5oL0oyem/W1aM152rlbEAWspnDpkufs0FF2VZ4zE+HMwUDMW8/n4wuv9eDA/ltXCwuJryKT1PB8HDCHjDpbEXe6pm2s1SPj1sihnhxOPygqqN8QRuT190zs7LOCzJJaBZdn2ROo7n+X7xwUK8laUaMJjhtH9cfAkk7IZhcMfwgTRNkyQZtTMulA1mGKWnWWLxsTaiHIp7zv7T5iNteq9NOs6on22GNp8bc0VxJMl8sh3YfIrTA0+tCkqX46EqVv8HbhpXY2uum84AAAAASUVORK5CYII=;" vertex="1" parent="1">
          <mxGeometry x="-1020" y="46" width="228.54" height="224" as="geometry" />
        </mxCell>
        <mxCell id="E4Af9fd59H3xyiRp7Fkf-3" value="&lt;font style=&quot;font-size: 50px;&quot;&gt;Lambda&lt;/font&gt;&lt;div&gt;&lt;font style=&quot;font-size: 50px;&quot;&gt;-triggered by&lt;/font&gt;&lt;/div&gt;&lt;div&gt;&lt;font style=&quot;font-size: 50px;&quot;&gt;step function&lt;/font&gt;&lt;/div&gt;" style="text;html=1;align=center;verticalAlign=middle;resizable=0;points=[];autosize=1;strokeColor=none;fillColor=none;" vertex="1" parent="1">
          <mxGeometry x="-1060.73" y="-145" width="310" height="190" as="geometry" />
        </mxCell>
        <mxCell id="E4Af9fd59H3xyiRp7Fkf-4" value="" style="rounded=1;whiteSpace=wrap;html=1;" vertex="1" parent="1">
          <mxGeometry x="150" y="-72.5" width="260" height="742.5" as="geometry" />
        </mxCell>
        <mxCell id="FOuPMx6KwlrgepM2unAe-18" style="edgeStyle=orthogonalEdgeStyle;rounded=0;orthogonalLoop=1;jettySize=auto;html=1;entryX=1;entryY=0.25;entryDx=0;entryDy=0;fillColor=#a20025;strokeColor=none;shape=flexArrow;strokeWidth=6;" parent="1" target="FOuPMx6KwlrgepM2unAe-8" edge="1">
          <mxGeometry relative="1" as="geometry">
            <Array as="points">
              <mxPoint x="780" y="461" />
            </Array>
            <mxPoint x="780" y="270" as="sourcePoint" />
          </mxGeometry>
        </mxCell>
        <mxCell id="FOuPMx6KwlrgepM2unAe-16" style="edgeStyle=orthogonalEdgeStyle;rounded=0;orthogonalLoop=1;jettySize=auto;html=1;entryX=0;entryY=0.5;entryDx=0;entryDy=0;fillColor=#a20025;strokeColor=none;shape=flexArrow;strokeWidth=6;" parent="1" source="FOuPMx6KwlrgepM2unAe-7" edge="1">
          <mxGeometry relative="1" as="geometry">
            <mxPoint x="680" y="157.5" as="targetPoint" />
          </mxGeometry>
        </mxCell>
        <mxCell id="m697ELH5VmtDTz1WUT-L-3" style="edgeStyle=orthogonalEdgeStyle;rounded=0;orthogonalLoop=1;jettySize=auto;html=1;entryX=0.5;entryY=1;entryDx=0;entryDy=0;shape=flexArrow;strokeColor=none;fillColor=#a0522d;strokeWidth=6;" parent="1" source="FOuPMx6KwlrgepM2unAe-8" target="FOuPMx6KwlrgepM2unAe-6" edge="1">
          <mxGeometry relative="1" as="geometry">
            <Array as="points">
              <mxPoint x="1193" y="570" />
            </Array>
          </mxGeometry>
        </mxCell>
        <mxCell id="FOuPMx6KwlrgepM2unAe-8" value="" style="shape=image;verticalLabelPosition=bottom;labelBackgroundColor=default;verticalAlign=top;aspect=fixed;imageAspect=0;image=data:image/jpeg,/9j/4AAQSkZJRgABAQAAAQABAAD/2wCEAAkGBxIQDw0PDg0WDQ0NEBATDg8WEBARDQ0NFRIWFhYRFRUYHjQgGBomGxUWITEhJTUrLi4uFx8zODMsNygtMCsBCgoKDg0OGhAQGisgGCArLS0tLSstKysrLSsrKy0tKy0tMCstLS0tLS0rMCstKy0tLystLS0rLS0tKy0rLS0tK//AABEIAOEA4QMBEQACEQEDEQH/xAAbAAEAAgMBAQAAAAAAAAAAAAABAgYEBQcAA//EAEoQAAICAAIFBwcIBwQLAAAAAAABAgMEEQUSEyExBgdBUWFxgSIyQnKRobEUUlNigpKiwhUjM5OywcMXQ9HSFiQ0VGNkc4OjpOL/xAAZAQEAAwEBAAAAAAAAAAAAAAAAAQMEAgX/xAAwEQEAAgECAwUIAgMBAQAAAAAAAQIDBBEhMUESIlFhcRMUUoGRobHwQtEyweHxYv/aAAwDAQACEQMRAD8A1aPBeSUBJEBAQkgKASAoCQCAkBAUElAJAQFAKAkgEBASAgKAQlJAJA8BX0XOCgFASRAQEJICgFEBQEgEBICAoJKASAgKAUBJAKAUAkBAUAoJSQHgK+WuCgFAKAkiAgISQFAKICgJAICQFAKCSgEgICgFASQCAoBICAoBQSQK+WuCAoBQCgJIgICEkBQCiAoCQCAkBQCgkoBICAoBQEkAoBQCQEBQCEq+i1wQEBQCgFASRAYrNpJZye5Jb231JBLd4HkpjLsnHCyhF+lZlUl4S3+xF1dPktyj68FlcN56N5hebi9/tcTXX6sZ2/HVL66G885iPv8A0tjTW6y2tHNzQv2mJtk/q7OCftTLY0NOsz9ncaavWWdXyFwUfOhOfa7Zr+HI79zxeH3d+70S/wBF9Gx41RXffa/jMmNNhjp95/s9ljjof0Doz5lX75/5h7HB4Qezxvf6M6Nlwqg+6+xfCYnTYJ6fc9ljE+RGCl5tco9qtm/i2R7ni8PvJ7CjDu5vaH5mIti+3ZyS/CiudDTpM/ZzOmr0lrcTze2r9liYWdkoSr96bKraG3S0fj+3E6aektPjOSuMqzbw7sivSrasz+yvK9xRfTZa9N/T93VThvHRqJxcW4yTjJcYtNSXemUTG07SrBAUAgSQCgFAJAQECvItcpAICAoDK0do+3ETVdFTtn1LhFdcm90V2s6rS152rG7qtZtO0L9oXm5ispY23Xf0VbcYd0p8X4Zd5tx6KOd5+Ufv9NVNNH8m7s0ho7RycIuuqa3OFcde9v62Wb8ZF83w4eHCPTms7WPHwaPHc5K4YfCt/Wsmo/hjnn7UUW13w1+qu2p8IaLFcucbZwtjSuqFcfjPNme2ryz129P+7qpz3lq79N4qzz8Xa+zazUfup5FU5bzztP1VzktPVhWScnnJuT62837ziePPi55hJdRG0CSXYNg5LqI2gSreq84vVfWtz9xMcOQzqNMYiHmYq2OXRtZ6vsbyO4y3jlafq7i9o6tpheWmNhxuVq6p1xfvjky2uryx139f2HcZ7w3eC5w+CxGG75Vy3/cl/iX11/xV+i2up8YbyrS+AxyUJyhOT4V2xUZp9Udbi/VZojLhzcJ2+a2L478Gs0ryChLOWEsdUuiubcq32KXnLxzKcmhieNJ2/f3xV208fxUrSOjrcPPUvrdcvRfGM11xktzPPvjtSdrQzWrNZ2lio4ckCSAUAgJAQK8i5yUQJIBA2fJ3Q88biIUQeqmnKyfHZ1LLOWXS96S7WizFjnJbsw7x0m9tnUcXjMHofDxhGOTl5lccnffNcZyfxk9y4LoR6VrY8Fdv2W2bUxRs59pvljisU2tf5PS+FVbazX1p8Ze5dhgyam9/KPJlvmtbyhoEZ1KSAQEJICgFEBQEgEBICAhLc6H5TYjDZKFm0qX91POUMuqL4x8N3Yy/HqMmPlO8eErKZbV9F90dpTDaTplVOHlZZ2Uy8+PRrwkuK3+ct6z6Mz0aZMeor2Z+jVW9csbKDyj0NLB3utvWrktaqfTKHU+1cH4PpPMz4ZxW26dGXJTsTs1aKVZAkAoBQCQK8XOSgEgSQF15qbssZdD5+HbT7Yzhu/E/YbNHPfmPJo0096YfbnN0Nar/AJYk7KJwhGbW/YSjuyfVF8c+tvrWbWY7drt9PwnUUnftdFHRjZigFASRAQEJICAogKAkAgJAQFBK1cgtFWWYmGJScKKdbOfBWScXHUj18d/ca9HitN4v0hfgpM27XRm85tudmEh0xhbJ90nFL+FnevnvV+f+nWpnjClmBmKAQJIBQCBXi1yQFAKIFk5vb9TSWG6rFbB9zrk174o0aadssea3BO14dT0tpyjDTprxMtnHEqerNr9SnHVzjN+jnrLe925npXy1pMRbq3WyVrMRPVo9Lcg8LiFtMNL5NKazThlPDyz6dTo+y0ii+kpbjXh+FVtPW3GOCn6R5C42nNxrWIh86uScsu2Msnn3ZmS+lyV5RuotgvHmr2IonU9W2uVUvmzhKEvZJGeYmOfD1UzExzQTCEkQEBCSAgKICgJAfSiqVj1a4Ssl82MXKXsQiJnlxTETPJvdH8jsZbk3UqIv0rJav4VnL2pGimly26beq2uC8+S16K5C0VeXiJvESjvaa1KV3rPN+Ly7DXj0VK8bcfwvrp6xz4t5o7S9Ftk6MNJTVEE5OCWxgs8lFPg/DduNFMtLTNa9PotresztCg84N2tjmvoqq4+O+f5zzdbO+X0hk1E99WzIpICgECSA8BXy5ySAgKA2PJ2/Z4zBz4auIpz9VzSl7mzvHO16z5w6xztaPV0LnZpzwuGsy3wv1e6Mq5P4xRu1sdyJ82vVR3Ynzc/0VpnEYV54e+VS6YZ51t9sH5OfbxMFMlqf4yyVvavKVu0dzl2LJYnDRs651ycJZeq8034o1U1s/wAo+jRXUz1hYMNy7wFy1bJSq1uMbKm14uOa9pfXV4rc+HqtjPSeb6LBaJxPmxw05PjqShXZ46jTJimnvy2+Sezit4IXcgMFLzYzrz+bbJ/x5kTo8XT8onT0Yc+bbD+jibl37KXwijj3GnjP2/pz7tXxl8Jc2sfRxsl31J/mI9xj4ke6x4of2af89/6//wBnPuP/ANfb/qPdfN9Ic20enGSfdUl+Yn3GPiT7tHi+9fNxR6WJtfds4/GLJ9xr4z9v6T7tXxZlPILBx85WWeta1/Akdxo8XXefm6jT0fX9HaLw/nRw8WuG0nGcvxtsn2enpz2+f/U9nFXwRu5Z4GlatcnPL0K6ml4N5R94nV4q8uPp+7E56RyaTH84k3msPhlDqnZJyf3I/wCJRfXT/GPr+/7VW1M9IVfSem8Rif298px+Z5tX3Vufe95jyZb3/wApUWyWtzlcea+nyMXZ86VcPupv86NugrwtP7+8WjTRwmVW5U36+Oxcuq1x+4lD8pk1E75bT5/jgoyzveWrRS4JAQFAICBX0XOCEkgICpteUt0o70+prehvtxHY+cCO10XbOO/LYWR7teOb+7JnqaqN8U/L8vQz8ccuPo8p55AQPED60XSh+znKv1ZOPwJiZjlwTE7cmbXpvFR83G3Ls29uXszO4yXj+U/WXXbt4yyYcp8auGNs8Wn8Ude3y/En2t/F9Fyrxv8Avk/ZD/Ae8Zfi/CfbX8UZcp8a+OMs8Gl8ER7xl+JHtb+L4T03ipccZc+zb2pexM5nJef5T9ZR27eMsW6+U/2k5WetKUvicTMzz4uZmZ5oogKAkAgdR5uqdXA630ttkvZlD8h6uijbFv4zP9N2njajmmIu2llln0k5z+9Jv+Z5Uz2pmfFimd53QRAUAkBAUAgV9FzgoBCSQEDslP8ArGgkvOlLR7XfZCrL+KJ6kb30/n2f9PQjvYfk46meU89JAICAoBQGVo3AzxF1dFKzsseSz3RSyzcm+hJJsmtZvPZjm6rWbTtC+f2arZ/7Y9tlx2a2WfVlnn45m73GNv8ALi1e68OfFRtI4GeHtspuWrZW8nlvi1lmpJ9KaaZhvSaT2Z5stqzWdpY5yggKAUQFASA6tot7DQ8Zrc44Sdi9aUJT+Mj1sc9jT7+W/wDtvr3cXycqR5DAkAoJKASAgIFeRc4SQCgEJJA7Fzb2KzRlcHv1J3Ql3Obll7Jo9TSzvij5t+n443IZ1uDcJedBuL74vJ/A8vbbgwbbcAiBJAICAoCxcgdIQox1crWowshOvXe6MJSyabfRvjl9ov014rkiZ9F2C0VvxdkPXegq/KfkjXjpK+Fzqu1FFSyU6pxWbWa49PFPwZmzaaMs9qJ2lTkwxfj1c80xycxOEzd1Oda/vYeXVl1t8Y/ayPOyYL4+ccPFjvitXm1RU4ICAkBfZx/mJHWOV72Oi7ILohTUu7WjF+7M9fU93DMR5Q35eGNyo8hgJAUAoJKASAgV4ucFASQCgEJdR5or88Pi6+mF8Z+E60v6bN+inuzHm2aWe7MKHyno2eOxsOrEWtdkZSc17pIx5Y2yWjzZskbXn1a1FbgogSQCAgIGV+kLtTZfKLNlllstrZstXq1M8sie1bbbedvWXXanbbdl6G0/iMI/1FzUOmqXlUv7L4d6yZ3jy3x/4z/TqmS1eUr5obnCpsyhi4PDze7XWc6X3+lH3rtNuPWVnhfh+Gmmoif8uDNx/JPBYyO1pyrc96tpcdnJ9sV5L9z7Tu2mxZI3j6w6thpfjH2U3S/IfFUZyrisVWvSrT2mXbW9/gszHk0uSnLjHl/X/rPbBavLirck02mspReTTWTT6mugzKXkBm6Gp2mJwsMs9e+pP1ddZ+7M6xxvesecOqRvaIdc5S6H+WYd0qzZNSUoyyzTaz3SXVvPYzYvaV7O+zfkp267OUaX0RdhJ6l8NXPzJrfXYuuMv5cew8jJitjna0MN6TSdpYRW4JAQFBJQCBXi5wSAoCSAUBfuaG/LEYuvPfZTCeX/AE5tf1DZop70w1aWe9MNVzj0amk739LGqa+4ofGDKtVG2WfNxqI2vKsmdSUAogSQCAgKAUAoDL0fpC3Dy16LpUy6dV7petHhLxzJre1J3rOzqtprylc9Ec4045RxdO0X0leUZ+MHufg13GzHrZj/ADj6NFdTP8oWWNuj9JrJ7O+eXB514mC7OE0u7cad8Ofwn8/2v3x5PNotKc3K3ywmI1equxZrwnHel4Mz30XwT9VVtN8MsDk3yZxNGkMM76Gq4SnJ2Jqde6uWW9cN+XHI4w6fJXLG8cP+OMeK1bxvDdcudP3YS/CbCaXkWSsg1nCyLcVFSXHolvWRdqs1sdq9nzW5sk0mNmx0TpbDaUpnVZWtfL9bRJ5uP14S6Vn6Sya3cCzHkpnrtMfJ1W9csbS57ym0K8He6s9auS1qZvjKGfB/WT3PwfSedmxTjtt06MmSnYnZqilWSAgKCSBXi5wQEgKAkgLXzZYjU0lVH6aq6H4dp/TNGlnbLHmv087ZGy53KMsVhrPpKHH93Nv+od6yO9E+TvVR3olRTGzEBQCiBJAICAoBQCgJIgK964djA32jOV+MoySv20F6Fudi+9nre8vpqclOu/r+7rq5r16r9yS5VPHSshKjZTqipOSnrQlm8urNPj18Dfp9R7XeNttmrFl7fRmaUswFljqxToldBJatjgrIprNJOW/pz3Hd5w2na+2/m6t7OZ2ttu+WD0Ro/DzWIrUKpxTynt5aqTWT3OWXAiuLFSe1HD5oimOs7wpXL7TVeKuqjQ9evDxmtovNnObWer1paq39rMGry1vaOzyhmz3i08OisGVQQEgKA8BXy5yQEBICgNxyQxGz0hgZf8eEf3j2f5izDO2Ss+azFO14XnngozqwVvzLbIffgpf0zXrY4RLTqo4RLmRgYyQEBQCQJIBAQFAICgJIgIHQ+amjycZZ86VUF9lSk/40ehoa/wCU/v7xbNLHCZVXldftMfjJcf1ur9yKh+UyZ53y2nz/ABwUZZ3vLUJdhTsrSQCgJAICQPAV9FzkgICAkD64e/ZzrsXGqcZrvjJS/kTE7Tv4JiduLsHOjSp6NlPjsraZp+tLZ5/+Q9LVxvj39G/Ux3N3HkeY88hJICAoBIEkAgICgFAKAkiB1bmzo1cBrfS3WS9mUPyHqaONse/jP/G/TxtRzDF37Sy2z6Wyc/vScv5nmTO8zPiwzO87vmQFAKICgJAIHgK+i1yUAgICAkDtOk5fKNAym97lgIWv14Vqb98T1Lz2sG/k9C09rDv5OMo8t55QCEkgICgFECSAQEBQCgFAde0M/k+hYTW7Uwllq75RlZ8ZHq457GnifLf/AG9Cndxb+TkcTyXnpBJAUAogKAkB4CvIucJIhJQCAgIHauQb2+h6a5dML6X3Kc4r8OR6en72KI+T0MHexw4tHgs9z6V0pnlw89NAKAQkkBAUAogSQCAgKA83uZE8h2Dlh+o0TbBejXTUl2OUIP3Znraju4Zj0j/T0MvdxuRo8l55AQkgKAUQFAIFeLnBQEiElAICB1zmhv1sFfBv9niZZdkZVwfx1j0NHPcmPNu0s92Y83M9OU7PF4yvLLUxF6XqqyWXuyMOSNrzHnLHeNrT6sJHDlJAKAQkkBAUAogSQCAgZmhqdpicLXlmp30xfquaz92Z1jje8R5w6pG9oh0jnTv1cHTBf3mIjn6sYTfx1T0NbO1Ijxls1M91y5HmsKSICAhJAUAkBArxc4ICBJEJKAQOkczV/l4+tvjGicV3Oak/fE26OeNo9GvSzxmFd5xMI69J4rOLjG5wsreW6cXXFSa+0pLwKNTXbJPmpzxtklXChUUBJAICEkgICgFECSAQLDyBwrs0jhsotxqc5zeW6CUJarf2nFeJfpq75Y8luCN7wsPO1f5eCrz4Rum13uCT90i/XTxrHqu1U8oUBGFkKAkiAgISQFAezIFfLnBAQFASRCSgNlye0zZgsRDEU5NxTjOD3RtqeWtBvo4J59DSe/gd48k0t2odUvNJ3h17CaQ0fpmlVzUbJJZuifk4mmWW9xaef2ovI9GLY80bN8Wx5o2/9VvS3Na98sHit3RXcv6kVw8PEovo/hn6qbaX4Z+qrY/kZj6c9bBysivSrytT7ox8r3Ge2nyR0U2w3jo0uIplW8rYSql1TjKD9kiqYmOfBXPDmgmQhJAISSA5hD6YeuVjyrg7JdUYuT9iEceXFMRvybrA8kcddlq4SUIv0rMqku1qW/2Itrp8luiyuG89Fp0VzaPdLF4nJdNdS4/9yS/l4mmmi+KfovrpfilYsVj8Doip1wUYSazVMPKxFr6HJvf9qW74F83x4I2+3VbNqYo2cr05pezGXzvt3OWShBb411rPKC6+LefS2zzMmSclu1LFe83neWCjhwUAoCSICAhJA8BX0WuCAgICgJIhJQEoyaaaeTi8008nF9afQwLLovl3j6Elt/lEFwjdHafjzU34svrqMleu/qtrnvXrv6rPgedVcMRgmvrV2KWf2ZJZe0urrPGF8arxhuqOcbR9i/WSsqz4xnTKXt2esi2NVjnn+Hcamk803pXQ1++csLJvpsqhF/jiTN8FueyZthtz2eWE0JPh8ifZGyhe5Mjs6efh+xEYZ5bfZP8AQ2h/m4b97D/MT7LD4QnsYvJF4LQsOPyNetZS/iyOxp4+H7I2wx4JR0joanfCWEi+uFdUn+BCL4K8tvsRbDHLZC7nA0fWsq5zsy4RhTOPs10kJ1eKOX4PeMccmoxnOhHhRg5P61lijl9mOeftKra34a/VXOq8IVvSXLfG35rbKiD9GqOo/vtuS8GjPfU5LddvRTbPe3XZXnJttt5tvNt7231t9JnVEBAUAgKAkiAgIS8BX0WuCgEBAQECSISUAgICAkBAUBJAISSAgKAUQJIBAQFAKAUBJEBA8BXy5yUQFAICAgKAkQkoBAQEBICgJIBQCEkgICgFECSAQEBQCAoCSIHgK+XOSAogKAQEBAUBIhJQCAgICQFASQCgEJJAQFAKIEkAgICgFAKASBXy5yQEBRAUAgICAgSRCSgEBAQEgKAkgFAISSAgKAUQJIBAQFAKAQK+i1yQEBICgJAKAQFAKICElASAUAkBQCAoBQEiEkBAUAogKAUAoBQCB//Z;" parent="1" vertex="1">
          <mxGeometry x="170" y="405" width="225" height="225" as="geometry" />
        </mxCell>
        <mxCell id="FOuPMx6KwlrgepM2unAe-15" style="edgeStyle=orthogonalEdgeStyle;rounded=0;orthogonalLoop=1;jettySize=auto;html=1;entryX=0;entryY=0.5;entryDx=0;entryDy=0;shape=flexArrow;fillColor=#a20025;strokeColor=none;strokeWidth=6;" parent="1" source="FOuPMx6KwlrgepM2unAe-10" target="FOuPMx6KwlrgepM2unAe-7" edge="1">
          <mxGeometry relative="1" as="geometry" />
        </mxCell>
        <mxCell id="FOuPMx6KwlrgepM2unAe-30" value="&lt;font style=&quot;font-size: 50px;&quot;&gt;Raw&lt;/font&gt;" style="text;html=1;align=center;verticalAlign=middle;resizable=0;points=[];autosize=1;strokeColor=none;fillColor=none;" parent="1" vertex="1">
          <mxGeometry x="222.5" y="-30" width="120" height="70" as="geometry" />
        </mxCell>
        <mxCell id="FOuPMx6KwlrgepM2unAe-31" value="&lt;span style=&quot;font-size: 50px;&quot;&gt;Cleaned&lt;/span&gt;" style="text;html=1;align=center;verticalAlign=middle;resizable=0;points=[];autosize=1;strokeColor=none;fillColor=none;" parent="1" vertex="1">
          <mxGeometry x="177.5" y="330" width="210" height="70" as="geometry" />
        </mxCell>
        <mxCell id="FOuPMx6KwlrgepM2unAe-2" value="" style="shape=image;verticalLabelPosition=bottom;labelBackgroundColor=default;verticalAlign=top;aspect=fixed;imageAspect=0;image=data:image/png,iVBORw0KGgoAAAANSUhEUgAAAMwAAAD3CAMAAABmQUuuAAAA4VBMVEXgUkOMMSP////ysKleHxiHLyG+RTazQDLkU0TLSjunPC7eRDKFGQD209Dgzcv319TfTT3ePSmJJxbzta6CCQDy6ulVGxWwfXffSTmJLB3ngXj77OvpjoaEIg/54+Hs4N/lcmdhIBmobmfYT0CWNSeGIAmjY1t9Kx9wJhzmfXPyv7u1hoHtpZ/JqaXhV0mYNiyuYFfNhn6TOy738fG4JwzqkYrVu7niYFPxubXFop6fW1LjaFzdyMa9lZGaUEeVRjykOzC6cGfhnZWrXVPfmpPKg3vJcWfIPy6fKhbasKuxOCgpEO/GAAAGb0lEQVR4nO3deVvbOBAHYCUhFwngHEBCoQk3bAMUaMsu9KAH3d1+/w+0lnzEsiXLSWZkezvzJw+R/WZiO48s58eqFmpytPfaxnYY/iYmR8Ox07u0wEHHuJR+pd5iNjjIGEGpcAyzwEHF+BQfg89BxISUEIPNQcNEKBEMLgcJI1EkDOdgnahRMDFKDIPHQcAkKAkMFgcco6AoMDgcYIySosRgcEAxGooGA88BxGgpWgw0BwyTQknBwHKAMKmUVAwkBwRjoBgwcBwAjJFixEBxVsbcmykZMIJznztmc2ikZMIw1tvIH9OFwnQIQxjCEIYwhCEMYQhDGMIQhjCEIQxhCFMmTGKeLYbZ3n13/f6PV8XHbH94c/duP7ajEmZ7d9hvtJxOb7Q32CouZvJhtzLs9sdNpydzIhhOqdQbYmBn1OlNZxsZJkwtYyZXu/3haX/MB23yRSxRTogRlEqACUAPxs+cRczk6ui0exrObHMMkzhMokiYAOTs/5kyQ28Js/nXWTcCmWOiHCZREphA1LmsaQ4iC5jNT4/D7sE4MWhzvojF4zCJosYELXpSHUS4mPuPnz6rIDKGsZHgMImixwQg98T92hLm/uObLzpIHONxWDe2MCQF44k6HenEjYPhlxF+9k0dtCmPOuqw+H+YMAIUOXHDY7b9y4hx0GZi1GUwAYifuCdwmC1x9g0uI+ZB4TABqF2Hwji30mXENoYXHKa1nh1SAsxCFsIQhjClwWTQlARzfnHTOG6ZQCXAnF8crq2t7ezsGEEFx3iQoASoqQcVF1OXIRHQoQ5UTIwGYgIVD2OApIGKhckIiYIqEVBxMAtCVKBiYFzIEo4kKH/M8cmFuzc7q2h80M1J7hjmfkTazZvztRVEhxfnWb4UWcD4oNZx47l+uGiTDi+WcqBiQhFzm5TxY7dcO2xh5iRDk1Zph11MKFI2aeV25ICZk/wmgbUjN0woYu1zUEZuGE8E2xPCEIYwhCEMYQhDGMKshEHQ2MaIr8zH7Uaz0Vw/qYsqHyZErJ9UBKEV+QsUChuTQPj7HN45ayX+o3gYHSIcNb5ZiE6hzJuJXXpWIrQYGdX2UPlj2lneWOMNWoHKf3r2d7zbTBjCEIYwhCEMYQhDGMIQhjCEIQxhCEMYwhCGMIQhDGEIQxjCEIYwhCEMYQhDGMIQhjCEIQxhCorJsPa1LGs0WZZVynpMdEnwYhZ765qNGIDF2tZXnCcwJVhxrjDJ68khl81bxsiodrux3m6uP0M/ppHT8zOtFuizJvli/m9PNhGGMIQhDGEIQ5jfD+Nk+mnswmMcxxmNHqZv7w4O+mNYklUMd7Cny/1ZbeBW7dvt188VLoIi2cLwdlxP997PuGJeg8HsxwtYk/AxvB1O0I6aovwmfRmvLELFaNqhLrdJt1+/r9QkJIxox0NKO3SgQe3Hy9JNwsA4o+snrx0LOCRTjTepog/NsIc5/rmCI9qk2c/8f0ezPT64e3s7W4XjQvan1yMn/+lZPnE+7i8NCiBOQSbOvRe6oMqCoAiEV4EwC4IEhIWQAmJC0EsaaKCAFBQzB31TgHSQAmN80Pi7BEqDFBwjg0yQEmDmIBOkJBgBGpsgJcKU6G4zYQhDmOzljP6Gw/yTkmqIjXFGPPLw31MoTGdjU583iYjhOXrMC0AFDDrc8iJNH+ORptkxsffBjPFTNV/BR1CGuZaKjNYsGIedDSVOOkaRd4qB4TW5OjKAYhind8mqm49Rjh7Dk2ins0S0KhbGB6UEUkoYpzfdEoG6k8d5cqsaw4/1S3UuNSYmPSo0ghGUIOp4chZwkhhD2DE2xgOpQlxDjE+Zh1AHHAkTO9Zzw/BKxuv6mJASjQf3OCFGm22cE8YDRS9EAhOhyMHtnCMwfmCuaWzrGG+DQSS1i5EosRR6zvmVFp9dBIzYqLgQ/ZIpcYzLuU0LNi8KRuzp1Uv8BXHMwpUbRlGEIQxhCEMYwhCGMIQhDGEIQxjCEIYwhCk3ZgiF6eWPud8dmu/ZZcCMevvGeW10TLW6beYYMS4l9V6DNUwGjgEDQwHCGDmpGAeIAoYxcFIwcBRATCpHi4GkgGJSOBoMLAUYo+UoMdAUcIyGo8DAUxAwSk4Cg0FBwSg4MQwOBQmT4EgYLAoaJsaJYPAoiBiJE2IwKaiYCMfH4FKQMSFHYLAp6Bif42LwKRYwHscGxQqGc2xQqtX/ADZXgmSEuZLbAAAAAElFTkSuQmCC;" parent="1" vertex="1">
          <mxGeometry x="180" y="-345" width="185.83" height="225" as="geometry" />
        </mxCell>
        <mxCell id="FOuPMx6KwlrgepM2unAe-7" value="" style="shape=image;verticalLabelPosition=bottom;labelBackgroundColor=default;verticalAlign=top;aspect=fixed;imageAspect=0;image=data:image/jpeg,/9j/4AAQSkZJRgABAQAAAQABAAD/2wCEAAkGBxIQDw0PDg0WDQ0NEBATDg8WEBARDQ0NFRIWFhYRFRUYHjQgGBomGxUWITEhJTUrLi4uFx8zODMsNygtMCsBCgoKDg0OGhAQGisgGCArLS0tLSstKysrLSsrKy0tKy0tMCstLS0tLS0rMCstKy0tLystLS0rLS0tKy0rLS0tK//AABEIAOEA4QMBEQACEQEDEQH/xAAbAAEAAgMBAQAAAAAAAAAAAAABAgYEBQcAA//EAEoQAAICAAIFBwcIBwQLAAAAAAABAgMEEQUSEyExBgdBUWFxgSIyQnKRobEUUlNigpKiwhUjM5OywcMXQ9HSFiQ0VGNkc4OjpOL/xAAZAQEAAwEBAAAAAAAAAAAAAAAAAQMEAgX/xAAwEQEAAgECAwUIAgMBAQAAAAAAAQIDBBEhMUESIlFhcRMUUoGRobHwQtEyweHxYv/aAAwDAQACEQMRAD8A1aPBeSUBJEBAQkgKASAoCQCAkBAUElAJAQFAKAkgEBASAgKAQlJAJA8BX0XOCgFASRAQEJICgFEBQEgEBICAoJKASAgKAUBJAKAUAkBAUAoJSQHgK+WuCgFAKAkiAgISQFAKICgJAICQFAKCSgEgICgFASQCAoBICAoBQSQK+WuCAoBQCgJIgICEkBQCiAoCQCAkBQCgkoBICAoBQEkAoBQCQEBQCEq+i1wQEBQCgFASRAYrNpJZye5Jb231JBLd4HkpjLsnHCyhF+lZlUl4S3+xF1dPktyj68FlcN56N5hebi9/tcTXX6sZ2/HVL66G885iPv8A0tjTW6y2tHNzQv2mJtk/q7OCftTLY0NOsz9ncaavWWdXyFwUfOhOfa7Zr+HI79zxeH3d+70S/wBF9Gx41RXffa/jMmNNhjp95/s9ljjof0Doz5lX75/5h7HB4Qezxvf6M6Nlwqg+6+xfCYnTYJ6fc9ljE+RGCl5tco9qtm/i2R7ni8PvJ7CjDu5vaH5mIti+3ZyS/CiudDTpM/ZzOmr0lrcTze2r9liYWdkoSr96bKraG3S0fj+3E6aektPjOSuMqzbw7sivSrasz+yvK9xRfTZa9N/T93VThvHRqJxcW4yTjJcYtNSXemUTG07SrBAUAgSQCgFAJAQECvItcpAICAoDK0do+3ETVdFTtn1LhFdcm90V2s6rS152rG7qtZtO0L9oXm5ispY23Xf0VbcYd0p8X4Zd5tx6KOd5+Ufv9NVNNH8m7s0ho7RycIuuqa3OFcde9v62Wb8ZF83w4eHCPTms7WPHwaPHc5K4YfCt/Wsmo/hjnn7UUW13w1+qu2p8IaLFcucbZwtjSuqFcfjPNme2ryz129P+7qpz3lq79N4qzz8Xa+zazUfup5FU5bzztP1VzktPVhWScnnJuT62837ziePPi55hJdRG0CSXYNg5LqI2gSreq84vVfWtz9xMcOQzqNMYiHmYq2OXRtZ6vsbyO4y3jlafq7i9o6tpheWmNhxuVq6p1xfvjky2uryx139f2HcZ7w3eC5w+CxGG75Vy3/cl/iX11/xV+i2up8YbyrS+AxyUJyhOT4V2xUZp9Udbi/VZojLhzcJ2+a2L478Gs0ryChLOWEsdUuiubcq32KXnLxzKcmhieNJ2/f3xV208fxUrSOjrcPPUvrdcvRfGM11xktzPPvjtSdrQzWrNZ2lio4ckCSAUAgJAQK8i5yUQJIBA2fJ3Q88biIUQeqmnKyfHZ1LLOWXS96S7WizFjnJbsw7x0m9tnUcXjMHofDxhGOTl5lccnffNcZyfxk9y4LoR6VrY8Fdv2W2bUxRs59pvljisU2tf5PS+FVbazX1p8Ze5dhgyam9/KPJlvmtbyhoEZ1KSAQEJICgFEBQEgEBICAhLc6H5TYjDZKFm0qX91POUMuqL4x8N3Yy/HqMmPlO8eErKZbV9F90dpTDaTplVOHlZZ2Uy8+PRrwkuK3+ct6z6Mz0aZMeor2Z+jVW9csbKDyj0NLB3utvWrktaqfTKHU+1cH4PpPMz4ZxW26dGXJTsTs1aKVZAkAoBQCQK8XOSgEgSQF15qbssZdD5+HbT7Yzhu/E/YbNHPfmPJo0096YfbnN0Nar/AJYk7KJwhGbW/YSjuyfVF8c+tvrWbWY7drt9PwnUUnftdFHRjZigFASRAQEJICAogKAkAgJAQFBK1cgtFWWYmGJScKKdbOfBWScXHUj18d/ca9HitN4v0hfgpM27XRm85tudmEh0xhbJ90nFL+FnevnvV+f+nWpnjClmBmKAQJIBQCBXi1yQFAKIFk5vb9TSWG6rFbB9zrk174o0aadssea3BO14dT0tpyjDTprxMtnHEqerNr9SnHVzjN+jnrLe925npXy1pMRbq3WyVrMRPVo9Lcg8LiFtMNL5NKazThlPDyz6dTo+y0ii+kpbjXh+FVtPW3GOCn6R5C42nNxrWIh86uScsu2Msnn3ZmS+lyV5RuotgvHmr2IonU9W2uVUvmzhKEvZJGeYmOfD1UzExzQTCEkQEBCSAgKICgJAfSiqVj1a4Ssl82MXKXsQiJnlxTETPJvdH8jsZbk3UqIv0rJav4VnL2pGimly26beq2uC8+S16K5C0VeXiJvESjvaa1KV3rPN+Ly7DXj0VK8bcfwvrp6xz4t5o7S9Ftk6MNJTVEE5OCWxgs8lFPg/DduNFMtLTNa9PotresztCg84N2tjmvoqq4+O+f5zzdbO+X0hk1E99WzIpICgECSA8BXy5ySAgKA2PJ2/Z4zBz4auIpz9VzSl7mzvHO16z5w6xztaPV0LnZpzwuGsy3wv1e6Mq5P4xRu1sdyJ82vVR3Ynzc/0VpnEYV54e+VS6YZ51t9sH5OfbxMFMlqf4yyVvavKVu0dzl2LJYnDRs651ycJZeq8034o1U1s/wAo+jRXUz1hYMNy7wFy1bJSq1uMbKm14uOa9pfXV4rc+HqtjPSeb6LBaJxPmxw05PjqShXZ46jTJimnvy2+Sezit4IXcgMFLzYzrz+bbJ/x5kTo8XT8onT0Yc+bbD+jibl37KXwijj3GnjP2/pz7tXxl8Jc2sfRxsl31J/mI9xj4ke6x4of2af89/6//wBnPuP/ANfb/qPdfN9Ic20enGSfdUl+Yn3GPiT7tHi+9fNxR6WJtfds4/GLJ9xr4z9v6T7tXxZlPILBx85WWeta1/Akdxo8XXefm6jT0fX9HaLw/nRw8WuG0nGcvxtsn2enpz2+f/U9nFXwRu5Z4GlatcnPL0K6ml4N5R94nV4q8uPp+7E56RyaTH84k3msPhlDqnZJyf3I/wCJRfXT/GPr+/7VW1M9IVfSem8Rif298px+Z5tX3Vufe95jyZb3/wApUWyWtzlcea+nyMXZ86VcPupv86NugrwtP7+8WjTRwmVW5U36+Oxcuq1x+4lD8pk1E75bT5/jgoyzveWrRS4JAQFAICBX0XOCEkgICpteUt0o70+prehvtxHY+cCO10XbOO/LYWR7teOb+7JnqaqN8U/L8vQz8ccuPo8p55AQPED60XSh+znKv1ZOPwJiZjlwTE7cmbXpvFR83G3Ls29uXszO4yXj+U/WXXbt4yyYcp8auGNs8Wn8Ude3y/En2t/F9Fyrxv8Avk/ZD/Ae8Zfi/CfbX8UZcp8a+OMs8Gl8ER7xl+JHtb+L4T03ipccZc+zb2pexM5nJef5T9ZR27eMsW6+U/2k5WetKUvicTMzz4uZmZ5oogKAkAgdR5uqdXA630ttkvZlD8h6uijbFv4zP9N2njajmmIu2llln0k5z+9Jv+Z5Uz2pmfFimd53QRAUAkBAUAgV9FzgoBCSQEDslP8ArGgkvOlLR7XfZCrL+KJ6kb30/n2f9PQjvYfk46meU89JAICAoBQGVo3AzxF1dFKzsseSz3RSyzcm+hJJsmtZvPZjm6rWbTtC+f2arZ/7Y9tlx2a2WfVlnn45m73GNv8ALi1e68OfFRtI4GeHtspuWrZW8nlvi1lmpJ9KaaZhvSaT2Z5stqzWdpY5yggKAUQFASA6tot7DQ8Zrc44Sdi9aUJT+Mj1sc9jT7+W/wDtvr3cXycqR5DAkAoJKASAgIFeRc4SQCgEJJA7Fzb2KzRlcHv1J3Ql3Obll7Jo9TSzvij5t+n443IZ1uDcJedBuL74vJ/A8vbbgwbbcAiBJAICAoCxcgdIQox1crWowshOvXe6MJSyabfRvjl9ov014rkiZ9F2C0VvxdkPXegq/KfkjXjpK+Fzqu1FFSyU6pxWbWa49PFPwZmzaaMs9qJ2lTkwxfj1c80xycxOEzd1Oda/vYeXVl1t8Y/ayPOyYL4+ccPFjvitXm1RU4ICAkBfZx/mJHWOV72Oi7ILohTUu7WjF+7M9fU93DMR5Q35eGNyo8hgJAUAoJKASAgV4ucFASQCgEJdR5or88Pi6+mF8Z+E60v6bN+inuzHm2aWe7MKHyno2eOxsOrEWtdkZSc17pIx5Y2yWjzZskbXn1a1FbgogSQCAgIGV+kLtTZfKLNlllstrZstXq1M8sie1bbbedvWXXanbbdl6G0/iMI/1FzUOmqXlUv7L4d6yZ3jy3x/4z/TqmS1eUr5obnCpsyhi4PDze7XWc6X3+lH3rtNuPWVnhfh+Gmmoif8uDNx/JPBYyO1pyrc96tpcdnJ9sV5L9z7Tu2mxZI3j6w6thpfjH2U3S/IfFUZyrisVWvSrT2mXbW9/gszHk0uSnLjHl/X/rPbBavLirck02mspReTTWTT6mugzKXkBm6Gp2mJwsMs9e+pP1ddZ+7M6xxvesecOqRvaIdc5S6H+WYd0qzZNSUoyyzTaz3SXVvPYzYvaV7O+zfkp267OUaX0RdhJ6l8NXPzJrfXYuuMv5cew8jJitjna0MN6TSdpYRW4JAQFBJQCBXi5wSAoCSAUBfuaG/LEYuvPfZTCeX/AE5tf1DZop70w1aWe9MNVzj0amk739LGqa+4ofGDKtVG2WfNxqI2vKsmdSUAogSQCAgKAUAoDL0fpC3Dy16LpUy6dV7petHhLxzJre1J3rOzqtprylc9Ec4045RxdO0X0leUZ+MHufg13GzHrZj/ADj6NFdTP8oWWNuj9JrJ7O+eXB514mC7OE0u7cad8Ofwn8/2v3x5PNotKc3K3ywmI1equxZrwnHel4Mz30XwT9VVtN8MsDk3yZxNGkMM76Gq4SnJ2Jqde6uWW9cN+XHI4w6fJXLG8cP+OMeK1bxvDdcudP3YS/CbCaXkWSsg1nCyLcVFSXHolvWRdqs1sdq9nzW5sk0mNmx0TpbDaUpnVZWtfL9bRJ5uP14S6Vn6Sya3cCzHkpnrtMfJ1W9csbS57ym0K8He6s9auS1qZvjKGfB/WT3PwfSedmxTjtt06MmSnYnZqilWSAgKCSBXi5wQEgKAkgLXzZYjU0lVH6aq6H4dp/TNGlnbLHmv087ZGy53KMsVhrPpKHH93Nv+od6yO9E+TvVR3olRTGzEBQCiBJAICAoBQCgJIgK964djA32jOV+MoySv20F6Fudi+9nre8vpqclOu/r+7rq5r16r9yS5VPHSshKjZTqipOSnrQlm8urNPj18Dfp9R7XeNttmrFl7fRmaUswFljqxToldBJatjgrIprNJOW/pz3Hd5w2na+2/m6t7OZ2ttu+WD0Ro/DzWIrUKpxTynt5aqTWT3OWXAiuLFSe1HD5oimOs7wpXL7TVeKuqjQ9evDxmtovNnObWer1paq39rMGry1vaOzyhmz3i08OisGVQQEgKA8BXy5yQEBICgNxyQxGz0hgZf8eEf3j2f5izDO2Ss+azFO14XnngozqwVvzLbIffgpf0zXrY4RLTqo4RLmRgYyQEBQCQJIBAQFAICgJIgIHQ+amjycZZ86VUF9lSk/40ehoa/wCU/v7xbNLHCZVXldftMfjJcf1ur9yKh+UyZ53y2nz/ABwUZZ3vLUJdhTsrSQCgJAICQPAV9FzkgICAkD64e/ZzrsXGqcZrvjJS/kTE7Tv4JiduLsHOjSp6NlPjsraZp+tLZ5/+Q9LVxvj39G/Ux3N3HkeY88hJICAoBIEkAgICgFAKAkiB1bmzo1cBrfS3WS9mUPyHqaONse/jP/G/TxtRzDF37Sy2z6Wyc/vScv5nmTO8zPiwzO87vmQFAKICgJAIHgK+i1yUAgICAkDtOk5fKNAym97lgIWv14Vqb98T1Lz2sG/k9C09rDv5OMo8t55QCEkgICgFECSAQEBQCgFAde0M/k+hYTW7Uwllq75RlZ8ZHq457GnifLf/AG9Cndxb+TkcTyXnpBJAUAogKAkB4CvIucJIhJQCAgIHauQb2+h6a5dML6X3Kc4r8OR6en72KI+T0MHexw4tHgs9z6V0pnlw89NAKAQkkBAUAogSQCAgKA83uZE8h2Dlh+o0TbBejXTUl2OUIP3Znraju4Zj0j/T0MvdxuRo8l55AQkgKAUQFAIFeLnBQEiElAICB1zmhv1sFfBv9niZZdkZVwfx1j0NHPcmPNu0s92Y83M9OU7PF4yvLLUxF6XqqyWXuyMOSNrzHnLHeNrT6sJHDlJAKAQkkBAUAogSQCAgZmhqdpicLXlmp30xfquaz92Z1jje8R5w6pG9oh0jnTv1cHTBf3mIjn6sYTfx1T0NbO1Ijxls1M91y5HmsKSICAhJAUAkBArxc4ICBJEJKAQOkczV/l4+tvjGicV3Oak/fE26OeNo9GvSzxmFd5xMI69J4rOLjG5wsreW6cXXFSa+0pLwKNTXbJPmpzxtklXChUUBJAICEkgICgFECSAQLDyBwrs0jhsotxqc5zeW6CUJarf2nFeJfpq75Y8luCN7wsPO1f5eCrz4Rum13uCT90i/XTxrHqu1U8oUBGFkKAkiAgISQFAezIFfLnBAQFASRCSgNlye0zZgsRDEU5NxTjOD3RtqeWtBvo4J59DSe/gd48k0t2odUvNJ3h17CaQ0fpmlVzUbJJZuifk4mmWW9xaef2ovI9GLY80bN8Wx5o2/9VvS3Na98sHit3RXcv6kVw8PEovo/hn6qbaX4Z+qrY/kZj6c9bBysivSrytT7ox8r3Ge2nyR0U2w3jo0uIplW8rYSql1TjKD9kiqYmOfBXPDmgmQhJAISSA5hD6YeuVjyrg7JdUYuT9iEceXFMRvybrA8kcddlq4SUIv0rMqku1qW/2Itrp8luiyuG89Fp0VzaPdLF4nJdNdS4/9yS/l4mmmi+KfovrpfilYsVj8Doip1wUYSazVMPKxFr6HJvf9qW74F83x4I2+3VbNqYo2cr05pezGXzvt3OWShBb411rPKC6+LefS2zzMmSclu1LFe83neWCjhwUAoCSICAhJA8BX0WuCAgICgJIhJQEoyaaaeTi8008nF9afQwLLovl3j6Elt/lEFwjdHafjzU34svrqMleu/qtrnvXrv6rPgedVcMRgmvrV2KWf2ZJZe0urrPGF8arxhuqOcbR9i/WSsqz4xnTKXt2esi2NVjnn+Hcamk803pXQ1++csLJvpsqhF/jiTN8FueyZthtz2eWE0JPh8ifZGyhe5Mjs6efh+xEYZ5bfZP8AQ2h/m4b97D/MT7LD4QnsYvJF4LQsOPyNetZS/iyOxp4+H7I2wx4JR0joanfCWEi+uFdUn+BCL4K8tvsRbDHLZC7nA0fWsq5zsy4RhTOPs10kJ1eKOX4PeMccmoxnOhHhRg5P61lijl9mOeftKra34a/VXOq8IVvSXLfG35rbKiD9GqOo/vtuS8GjPfU5LddvRTbPe3XZXnJttt5tvNt7231t9JnVEBAUAgKAkiAgIS8BX0WuCgEBAQECSISUAgICAkBAUBJAISSAgKAUQJIBAQFAKAUBJEBA8BXy5yUQFAICAgKAkQkoBAQEBICgJIBQCEkgICgFECSAQEBQCAoCSIHgK+XOSAogKAQEBAUBIhJQCAgICQFASQCgEJJAQFAKIEkAgICgFAKASBXy5yQEBRAUAgICAgSRCSgEBAQEgKAkgFAISSAgKAUQJIBAQFAKAQK+i1yQEBICgJAKAQFAKICElASAUAkBQCAoBQEiEkBAUAogKAUAoBQCB//Z;" parent="1" vertex="1">
          <mxGeometry x="170" y="45" width="225" height="225" as="geometry" />
        </mxCell>
      </root>
    </mxGraphModel>
  </diagram>
</mxfile>
